<svg width="258" height="326" viewBox="0 0 258 326" fill="none" xmlns="http://www.w3.org/2000/svg">
<path fill-rule="evenodd" clip-rule="evenodd" d="M128.557 0.154297C155.748 0.154297 179.176 16.2683 189.813 39.4682C207.929 71.9063 237.719 125.49 241.77 133.754C247.309 145.054 252.847 159.233 254.177 167.21C254.251 167.657 254.277 168.098 254.259 168.534C256.38 177.795 257.5 187.437 257.5 197.342C257.5 268.312 199.969 325.846 129 325.846C58.0314 325.846 0.5 268.312 0.5 197.342C0.5 173.798 6.83123 151.733 17.8839 132.757C24.744 119.026 33.6354 101.499 39.9362 89.8856C43.5658 83.1955 48.0193 74.8528 52.571 66.3261L52.5711 66.326C59.3552 53.6174 66.3575 40.5001 71.175 31.8372L71.2707 32.0698C83.1459 12.913 104.361 0.154297 128.557 0.154297ZM101.529 43.5798C101.529 35.7485 107.878 29.4 115.709 29.4H142.737C150.568 29.4 156.917 35.7485 156.917 43.5798C156.917 51.411 150.568 57.7595 142.737 57.7595H115.709C107.878 57.7595 101.529 51.411 101.529 43.5798Z" fill="#33C88C"/>
<path d="M226.771 194.461C226.771 248.584 182.898 292.459 128.777 292.459C74.6563 292.459 30.7827 248.584 30.7827 194.461C30.7827 140.339 74.6563 96.4639 128.777 96.4639C182.898 96.4639 226.771 140.339 226.771 194.461Z" fill="#33C88C" stroke="#249E6D" stroke-width="4.73733"/>
<path d="M63.4219 197.12C63.4219 233.462 92.8819 262.923 129.223 262.923C136.491 262.923 142.383 257.031 142.383 249.762C142.383 242.494 136.491 236.602 129.223 236.602C107.418 236.602 89.7422 218.925 89.7422 197.12C89.7422 175.315 107.418 157.638 129.223 157.638C146 157.638 160.333 168.103 166.05 182.862C166.34 183.61 165.776 184.398 164.975 184.398H129.223C121.955 184.398 116.063 190.29 116.063 197.559C116.063 204.827 121.955 210.719 129.223 210.719H181.863C189.132 210.719 195.024 204.827 195.024 197.559V197.12C195.024 160.778 165.564 131.317 129.223 131.317C92.8819 131.317 63.4219 160.778 63.4219 197.12Z" fill="white"/>
</svg>
