<svg width="28" height="28" viewBox="0 0 28 28" fill="none" xmlns="http://www.w3.org/2000/svg">
<path d="M24.3193 7.03049C23.5358 7.37749 22.6932 7.60902 21.8044 7.71857C22.708 7.18208 23.4032 6.32642 23.7295 5.31562C22.8839 5.81125 21.9471 6.17542 20.9505 6.36728C20.1547 5.52346 19.0195 5 17.7618 5C15.3458 5 13.3875 6.94108 13.3875 9.33456C13.3875 9.67327 13.4272 10.0031 13.5018 10.3234C9.86719 10.1411 6.64351 8.41317 4.48689 5.79112C4.10792 6.43182 3.89474 7.18208 3.89474 7.97379C3.89474 9.47845 4.66513 10.8031 5.83996 11.5835C5.12287 11.5616 4.44781 11.3621 3.85684 11.0423C3.85684 11.0554 3.85684 11.0749 3.85684 11.0932C3.85684 13.196 5.36506 14.947 7.36416 15.3455C6.9988 15.4456 6.61272 15.5012 6.21479 15.5012C5.93234 15.5012 5.65699 15.4693 5.39052 15.4213C5.94714 17.1397 7.56194 18.3957 9.47519 18.433C7.97822 19.5936 6.09281 20.2888 4.04278 20.2888C3.68867 20.2888 3.34226 20.2686 3 20.2272C4.93693 21.4535 7.23685 22.1724 9.70553 22.1724C17.7499 22.1724 22.1508 15.5664 22.1508 9.83552C22.1508 9.6478 22.1449 9.46068 22.136 9.27593C22.9946 8.66957 23.7348 7.90451 24.3193 7.03049Z" fill="#03A9F4"/>
</svg>
