<svg width="28" height="28" viewBox="0 0 28 28" fill="none" xmlns="http://www.w3.org/2000/svg">
<path d="M24.5 21.5833C24.5 23.1945 23.1945 24.5 21.5833 24.5H6.41667C4.80608 24.5 3.5 23.1945 3.5 21.5833V6.41667C3.5 4.8055 4.80608 3.5 6.41667 3.5H21.5833C23.1945 3.5 24.5 4.8055 24.5 6.41667V21.5833Z" fill="#0078D4"/>
<path opacity="0.05" d="M17.5 21.5846V15.6936C17.5 14.7083 17.0222 14.1197 16.2213 14.1197C15.7459 14.1197 15.3965 14.3875 15.1835 14.9154C15.1736 14.9527 15.1596 15.105 15.1655 15.5652L15.1666 21.5846H11.0833V10.5013H15.1666V11.1202C15.7628 10.709 16.4937 10.5013 17.3471 10.5013C19.9995 10.5013 21.5827 12.3056 21.5827 15.3278L21.5833 21.5846H17.5ZM6.41663 21.5846V10.5013H8.43321C7.26479 10.5013 6.41663 9.64264 6.41663 8.45905C6.41663 7.27664 7.27879 6.41797 8.46646 6.41797C9.64013 6.41797 10.476 7.25272 10.5 8.44739C10.5 9.63972 9.63721 10.5013 8.44954 10.5013H10.5V21.5846H6.41663Z" fill="black"/>
<path opacity="0.07" d="M17.7917 21.2904V15.6909C17.7917 14.54 17.1903 13.8254 16.2214 13.8254C15.466 13.8254 15.0926 14.3574 14.913 14.8037C14.8651 14.9198 14.8715 15.3806 14.8739 15.5772L14.875 21.2904H11.375V10.7904H14.875V11.7459C15.3388 11.2658 16.0855 10.7904 17.3472 10.7904C19.8165 10.7904 21.2911 12.4855 21.2911 15.3252L21.2917 21.2904H17.7917ZM6.70837 21.2904V10.7904H10.2084V21.2904H6.70837ZM8.43329 10.207C7.43404 10.207 6.70837 9.47086 6.70837 8.45645C6.70837 7.44261 7.44804 6.70703 8.46654 6.70703C9.47221 6.70703 10.188 7.42395 10.2084 8.45061C10.2084 9.47086 9.46871 10.207 8.44962 10.207H8.43329Z" fill="black"/>
<path d="M7 11.0833H9.91667V21H7V11.0833ZM8.44958 9.91667H8.43325C7.56292 9.91667 7 9.268 7 8.45775C7 7.63 7.58042 7 8.4665 7C9.35375 7 9.90033 7.63 9.91667 8.45775C9.91667 9.26742 9.35375 9.91667 8.44958 9.91667ZM21 21H18.0833V15.6922C18.0833 14.4101 17.3687 13.5351 16.2213 13.5351C15.3458 13.5351 14.8721 14.1254 14.6422 14.6959C14.5582 14.9001 14.5833 15.4647 14.5833 15.75V21H11.6667V11.0833H14.5833V12.6093C15.0039 11.9583 15.6625 11.0833 17.3472 11.0833C19.4343 11.0833 20.9994 12.3958 20.9994 15.3265L21 21Z" fill="white"/>
</svg>
