<svg width="394" height="593" viewBox="0 0 394 593" fill="none" xmlns="http://www.w3.org/2000/svg">
<g clip-path="url(#clip0_102_688)">
<rect x="120" y="6" width="268" height="580" rx="27.2941" fill="#F5F6F8"/>
<g clip-path="url(#clip1_102_688)" filter="url(#filter0_d_102_688)">
<rect width="268" height="70" transform="translate(119.999 6)" fill="white"/>
<path d="M175.717 4.57153H332.146C330.641 5.00203 329.587 6.35385 329.535 7.91758L329.515 8.54425C329.515 18.1849 321.699 26.0001 312.059 26.0001H195.804C186.163 26.0001 178.348 18.1849 178.348 8.54425L178.327 7.91758C178.276 6.35386 177.221 5.00203 175.717 4.57153Z" fill="black"/>
<path opacity="0.35" d="M360.355 20.2856C360.355 19.4309 361.048 18.738 361.903 18.738H373.807C374.662 18.738 375.355 19.4309 375.355 20.2856V24.5713C375.355 25.4261 374.662 26.119 373.807 26.119H361.903C361.048 26.119 360.355 25.4261 360.355 24.5713V20.2856Z" stroke="#606A7B" stroke-width="0.714286"/>
<path opacity="0.4" d="M376.428 20.9998V23.8569C377.002 23.6149 377.376 23.052 377.376 22.4283C377.376 21.8047 377.002 21.2417 376.428 20.9998Z" fill="#606A7B"/>
<path d="M361.427 20.7627C361.427 20.2367 361.853 19.8103 362.379 19.8103H373.332C373.858 19.8103 374.284 20.2367 374.284 20.7627V24.096C374.284 24.622 373.858 25.0484 373.332 25.0484H362.379C361.853 25.0484 361.427 24.622 361.427 24.096V20.7627Z" fill="#606A7B"/>
<path fill-rule="evenodd" clip-rule="evenodd" d="M350.949 20.0058C352.532 20.0059 354.054 20.6141 355.202 21.7046C355.288 21.7888 355.426 21.7878 355.511 21.7022L356.337 20.8689C356.38 20.8255 356.404 20.7668 356.404 20.7057C356.403 20.6445 356.378 20.5861 356.335 20.5432C353.324 17.6578 348.574 17.6578 345.563 20.5432C345.52 20.586 345.495 20.6445 345.495 20.7056C345.494 20.7667 345.518 20.8255 345.561 20.8689L346.387 21.7022C346.472 21.7879 346.61 21.7889 346.697 21.7046C347.844 20.614 349.366 20.0058 350.949 20.0058ZM350.952 22.7183C351.821 22.7182 352.66 23.0414 353.304 23.6252C353.392 23.708 353.529 23.7062 353.614 23.6211L354.439 22.7878C354.482 22.7441 354.506 22.6848 354.506 22.6232C354.505 22.5615 354.48 22.5027 354.435 22.4599C352.472 20.6339 349.432 20.6339 347.469 22.4599C347.425 22.5027 347.4 22.5616 347.399 22.6232C347.399 22.6848 347.423 22.7441 347.466 22.7878L348.291 23.6211C348.376 23.7062 348.513 23.708 348.6 23.6252C349.245 23.0418 350.082 22.7186 350.952 22.7183ZM352.604 24.5408C352.605 24.6026 352.581 24.6622 352.537 24.7055L351.11 26.1453C351.068 26.1876 351.011 26.2114 350.952 26.2114C350.892 26.2114 350.835 26.1876 350.794 26.1453L349.367 24.7055C349.323 24.6622 349.298 24.6026 349.3 24.5408C349.301 24.479 349.328 24.4205 349.374 24.3791C350.285 23.6084 351.619 23.6084 352.53 24.3791C352.576 24.4205 352.603 24.479 352.604 24.5408Z" fill="#606A7B"/>
<path fill-rule="evenodd" clip-rule="evenodd" d="M341.189 18.6187H340.475C340.081 18.6187 339.761 18.9384 339.761 19.3329V25.5234C339.761 25.9179 340.081 26.2377 340.475 26.2377H341.189C341.584 26.2377 341.904 25.9179 341.904 25.5234V19.3329C341.904 18.9384 341.584 18.6187 341.189 18.6187ZM337.142 20.2853H337.856C338.251 20.2853 338.57 20.6051 338.57 20.9996V25.5234C338.57 25.9179 338.251 26.2377 337.856 26.2377H337.142C336.747 26.2377 336.428 25.9179 336.428 25.5234V20.9996C336.428 20.6051 336.747 20.2853 337.142 20.2853ZM334.521 21.952H333.807C333.412 21.952 333.092 22.2718 333.092 22.6662V25.5234C333.092 25.9179 333.412 26.2377 333.807 26.2377H334.521C334.915 26.2377 335.235 25.9179 335.235 25.5234V22.6662C335.235 22.2718 334.915 21.952 334.521 21.952ZM331.19 23.3808H330.475C330.081 23.3808 329.761 23.7006 329.761 24.0951V25.5237C329.761 25.9182 330.081 26.2379 330.475 26.2379H331.19C331.584 26.2379 331.904 25.9182 331.904 25.5237V24.0951C331.904 23.7006 331.584 23.3808 331.19 23.3808Z" fill="#606A7B"/>
<path d="M146.653 26.1828C148.573 26.1828 149.713 24.6814 149.713 22.1388C149.713 21.1814 149.53 20.3758 149.18 19.7532C148.672 18.7854 147.799 18.2622 146.695 18.2622C145.052 18.2622 143.891 19.3661 143.891 20.9146C143.891 22.369 144.937 23.4258 146.376 23.4258C147.26 23.4258 147.976 23.0125 148.332 22.2958H148.348C148.348 22.2958 148.369 22.2958 148.374 22.2958C148.385 22.2958 148.421 22.2958 148.421 22.2958C148.421 24.0222 147.767 25.0528 146.663 25.0528C146.015 25.0528 145.512 24.6971 145.34 24.1268H143.995C144.22 25.3667 145.272 26.1828 146.653 26.1828ZM146.7 22.3533C145.832 22.3533 145.214 21.736 145.214 20.8728C145.214 20.0305 145.863 19.387 146.705 19.387C147.548 19.387 148.196 20.0409 148.196 20.8937C148.196 21.736 147.563 22.3533 146.7 22.3533Z" fill="#606A7B"/>
<path d="M151.921 26.1096C152.418 26.1096 152.758 25.7538 152.758 25.283C152.758 24.8069 152.418 24.4564 151.921 24.4564C151.43 24.4564 151.084 24.8069 151.084 25.283C151.084 25.7538 151.43 26.1096 151.921 26.1096ZM151.921 22.1859C152.418 22.1859 152.758 21.8354 152.758 21.3645C152.758 20.8885 152.418 20.5379 151.921 20.5379C151.43 20.5379 151.084 20.8885 151.084 21.3645C151.084 21.8354 151.43 22.1859 151.921 22.1859Z" fill="#606A7B"/>
<path d="M157.655 25.9997H158.948V24.5924H159.968V23.4519H158.948V18.4505H157.043C155.709 20.4595 154.647 22.1388 153.967 23.3892V24.5924H157.655V25.9997ZM155.217 23.4049C156.096 21.8563 156.881 20.6164 157.603 19.5492H157.676V23.4833H155.217V23.4049Z" fill="#606A7B"/>
<path d="M162.845 25.9997H164.195V18.4505H162.851L160.878 19.8317V21.1291L162.756 19.8108H162.845V25.9997Z" fill="#606A7B"/>
</g>
<g filter="url(#filter1_d_102_688)">
<path d="M119.999 483.144H387.856V586.001H119.999V483.144Z" fill="white"/>
</g>
<path d="M217.899 60.0762H213.212V51.3639H211.649V61.4294H217.899V60.0762ZM219.22 61.4294H220.727V51.3639H219.22V61.4294ZM224.949 60.3622C224.14 60.3622 223.61 59.9437 223.61 59.3019C223.61 58.6741 224.119 58.2765 225.019 58.2138L226.826 58.1022V58.6811C226.826 59.6368 226.003 60.3622 224.949 60.3622ZM224.531 61.555C225.493 61.555 226.421 61.0388 226.847 60.2227H226.882V61.4294H228.325V56.3722C228.325 54.9004 227.188 53.9587 225.41 53.9587C223.596 53.9587 222.466 54.9353 222.382 56.2606H223.805C223.938 55.6049 224.482 55.1864 225.354 55.1864C226.275 55.1864 226.826 55.6747 226.826 56.4908V57.0558L224.817 57.1744C223.073 57.2721 222.089 58.0603 222.089 59.3438C222.089 60.6621 223.094 61.555 224.531 61.555ZM236.161 54.0913H234.585L232.743 59.9576H232.716L230.874 54.0913H229.27L231.913 61.4294H233.532L236.161 54.0913ZM239.993 55.1725C241.047 55.1725 241.758 55.9607 241.793 57.0837H238.124C238.201 55.9746 238.94 55.1725 239.993 55.1725ZM241.786 59.274C241.584 59.9158 240.949 60.3482 240.091 60.3482C238.884 60.3482 238.117 59.5042 238.117 58.2277V58.137H243.3V57.6208C243.3 55.3957 242.03 53.9587 239.993 53.9587C237.922 53.9587 236.596 55.4933 236.596 57.7952C236.596 60.1111 237.901 61.569 240.056 61.569C241.737 61.569 243.007 60.6133 243.216 59.274H241.786ZM244.579 61.4294H246.085V57.0349C246.085 55.9956 246.685 55.3469 247.655 55.3469C247.948 55.3469 248.213 55.3817 248.332 55.4306V54.0285C248.22 54.0076 248.032 53.9727 247.815 53.9727C246.95 53.9727 246.295 54.4819 246.051 55.3399H246.016V54.0913H244.579V61.4294ZM252.205 61.569C254.305 61.569 255.686 60.125 255.686 57.7604C255.686 55.4027 254.298 53.9587 252.205 53.9587C250.113 53.9587 248.725 55.4027 248.725 57.7604C248.725 60.125 250.106 61.569 252.205 61.569ZM252.205 60.3273C251.027 60.3273 250.259 59.3926 250.259 57.7604C250.259 56.1351 251.027 55.2004 252.205 55.2004C253.384 55.2004 254.152 56.1351 254.152 57.7604C254.152 59.3926 253.391 60.3273 252.205 60.3273ZM256.826 56.17C256.826 57.2372 257.516 57.9068 258.911 58.2277L260.104 58.5067C260.906 58.6881 261.178 58.9671 261.178 59.4414C261.178 60.0413 260.62 60.418 259.714 60.418C258.793 60.418 258.27 60.0413 258.13 59.274H256.637C256.777 60.6691 257.879 61.569 259.714 61.569C261.443 61.569 262.692 60.6482 262.692 59.3089C262.692 58.2486 262.12 57.6627 260.62 57.3139L259.428 57.0419C258.632 56.8605 258.298 56.5466 258.298 56.0863C258.298 55.5003 258.842 55.1027 259.658 55.1027C260.502 55.1027 261.025 55.5491 261.109 56.2606H262.525C262.476 54.9074 261.367 53.9587 259.658 53.9587C257.97 53.9587 256.826 54.8586 256.826 56.17ZM268.724 52.6753H270.872C272.079 52.6753 272.811 53.3589 272.811 54.4819C272.811 55.6328 272.121 56.2955 270.914 56.2955H268.724V52.6753ZM268.724 57.5581H270.872L272.923 61.4294H274.723L272.47 57.3139C273.697 56.9024 274.423 55.8003 274.423 54.44C274.423 52.5637 273.132 51.3639 271.061 51.3639H267.161V61.4294H268.724V57.5581ZM277.606 61.4294V57.2163H281.931V55.8979H277.606V52.7101H282.329V51.3639H276.044V61.4294H277.606ZM285.358 61.4294V51.3639H283.796V61.4294H285.358ZM287.321 51.3639V61.4294H290.871C293.871 61.4294 295.636 59.56 295.636 56.3792C295.636 53.2054 293.864 51.3639 290.871 51.3639H287.321ZM288.883 52.7101H290.725C292.853 52.7101 294.038 54.0215 294.038 56.3932C294.038 58.7718 292.859 60.0762 290.725 60.0762H288.883V52.7101Z" fill="#606A7B"/>
<path d="M138.311 62.5891C138.495 62.7662 138.73 62.8629 139.007 62.8629C139.56 62.8629 140.005 62.4441 140.005 61.9126C140.005 61.6469 139.887 61.4053 139.694 61.2201L133.824 55.712L139.694 50.2199C139.887 50.0347 140.005 49.7851 140.005 49.5274C140.005 48.9959 139.56 48.5771 139.007 48.5771C138.73 48.5771 138.495 48.6738 138.311 48.8509L131.786 54.9711C131.551 55.1805 131.442 55.4382 131.433 55.72C131.433 56.0019 131.551 56.2434 131.786 56.4609L138.311 62.5891Z" fill="#606A7B"/>
<rect x="154.29" y="540.286" width="199.286" height="28.5714" rx="5.71429" fill="#33C88C"/>
<g clip-path="url(#clip2_102_688)">
<path fill-rule="evenodd" clip-rule="evenodd" d="M197.017 548.982L195.039 554.585C194.74 555.237 194.572 555.962 194.572 556.726C194.572 559.561 196.87 561.858 199.704 561.858C202.538 561.858 204.836 559.561 204.836 556.726C204.836 555.959 204.667 555.231 204.365 554.577L202.403 549.018C202.355 548.8 202.28 548.592 202.184 548.397L202.156 548.317H202.143C201.677 547.448 200.761 546.857 199.706 546.857C198.651 546.857 197.734 547.448 197.269 548.317H197.251L197.212 548.43C197.128 548.604 197.062 548.789 197.017 548.982ZM197.731 550.804C197.731 550.368 198.085 550.015 198.521 550.015H200.889C201.325 550.015 201.679 550.368 201.679 550.804C201.679 551.24 201.325 551.594 200.889 551.594H198.521C198.085 551.594 197.731 551.24 197.731 550.804ZM202.465 558.534L201.557 557.64L201.11 558.08C200.802 558.382 200.442 558.567 200.028 558.633C199.624 558.69 199.24 558.628 198.874 558.449L202.465 554.917L202.018 554.477C201.701 554.165 201.341 553.933 200.937 553.782C200.543 553.621 200.139 553.541 199.725 553.541C199.312 553.541 198.903 553.621 198.5 553.782C198.105 553.933 197.75 554.165 197.432 554.477C197.115 554.789 196.88 555.139 196.726 555.527C196.572 555.914 196.495 556.312 196.495 556.718C196.495 557.125 196.572 557.527 196.726 557.924C196.88 558.311 197.115 558.661 197.432 558.973C197.74 559.276 198.091 559.508 198.485 559.668C198.879 559.829 199.293 559.91 199.725 559.91C200.158 559.91 200.571 559.829 200.966 559.668C201.36 559.508 201.711 559.276 202.018 558.973L202.465 558.534ZM197.764 556.718C197.764 556.189 197.956 555.735 198.341 555.357C198.649 555.054 199.004 554.874 199.408 554.818C199.821 554.761 200.211 554.822 200.576 555.002C200.442 555.134 200.249 555.319 199.999 555.555L199.235 556.307L198.485 557.044L197.966 557.555C197.831 557.29 197.764 557.011 197.764 556.718Z" fill="white"/>
</g>
<path d="M217.821 557.689C219.442 557.689 220.546 556.835 220.814 555.38H219.726C219.506 556.229 218.808 556.732 217.826 556.732C216.532 556.732 215.712 555.692 215.712 554.047C215.712 552.416 216.542 551.366 217.821 551.366C218.778 551.366 219.53 551.957 219.726 552.86H220.809C220.624 551.391 219.418 550.409 217.821 550.409C215.853 550.409 214.594 551.815 214.594 554.047C214.594 556.293 215.844 557.689 217.821 557.689ZM225.562 550.409C223.531 550.409 222.261 551.81 222.261 554.052C222.261 556.293 223.531 557.689 225.562 557.689C227.588 557.689 228.863 556.293 228.863 554.052C228.863 551.81 227.588 550.409 225.562 550.409ZM225.562 551.371C226.9 551.371 227.74 552.406 227.74 554.052C227.74 555.692 226.9 556.727 225.562 556.727C224.224 556.727 223.379 555.692 223.379 554.052C223.379 552.406 224.224 551.371 225.562 551.371ZM237.751 557.572V550.526H236.481L234.206 556.141H234.167L231.886 550.526H230.622V557.572H231.618V552.387H231.652L233.781 557.572H234.592L236.716 552.387H236.75V557.572H237.751ZM239.764 550.526V557.572H240.858V555.165H242.371C243.753 555.165 244.725 554.218 244.725 552.841C244.725 551.469 243.773 550.526 242.405 550.526H239.764ZM240.858 551.449H242.117C243.065 551.449 243.607 551.957 243.607 552.846C243.607 553.734 243.065 554.247 242.112 554.247H240.858V551.449ZM247.49 551.444H248.994C249.839 551.444 250.351 551.923 250.351 552.709C250.351 553.515 249.868 553.978 249.023 553.978H247.49V551.444ZM247.49 554.862H248.994L250.429 557.572H251.689L250.112 554.691C250.971 554.403 251.479 553.632 251.479 552.68C251.479 551.366 250.576 550.526 249.126 550.526H246.396V557.572H247.49V554.862ZM257.843 557.572H259L256.456 550.526H255.274L252.731 557.572H253.868L254.513 555.668H257.198L257.843 557.572ZM255.841 551.698H255.87L256.92 554.789H254.791L255.841 551.698ZM261.584 551.444H263.088C263.933 551.444 264.446 551.923 264.446 552.709C264.446 553.515 263.962 553.978 263.118 553.978H261.584V551.444ZM261.584 554.862H263.088L264.524 557.572H265.784L264.207 554.691C265.066 554.403 265.574 553.632 265.574 552.68C265.574 551.366 264.67 550.526 263.22 550.526H260.491V557.572H261.584V554.862ZM274.468 556.625H271.187V550.526H270.093V557.572H274.468V556.625ZM280.495 556.625H277.214V550.526H276.12V557.572H280.495V556.625ZM286.737 557.572H287.894L285.35 550.526H284.168L281.624 557.572H282.762L283.406 555.668H286.092L286.737 557.572ZM284.735 551.698H284.764L285.814 554.789H283.685L284.735 551.698ZM291.889 557.572L294.404 550.526H293.237L291.313 556.342H291.284L289.365 550.526H288.178L290.693 557.572H291.889ZM300.372 556.625H296.993V554.437H300.191V553.529H296.993V551.469H300.372V550.526H295.899V557.572H300.372V556.625ZM303.303 551.444H304.807C305.652 551.444 306.165 551.923 306.165 552.709C306.165 553.515 305.681 553.978 304.836 553.978H303.303V551.444ZM303.303 554.862H304.807L306.243 557.572H307.502L305.925 554.691C306.785 554.403 307.292 553.632 307.292 552.68C307.292 551.366 306.389 550.526 304.939 550.526H302.209V557.572H303.303V554.862ZM312.113 550.409C310.082 550.409 308.812 551.81 308.812 554.052C308.812 556.293 310.082 557.689 312.113 557.689C314.14 557.689 315.414 556.293 315.414 554.052C315.414 551.81 314.14 550.409 312.113 550.409ZM312.113 551.371C313.451 551.371 314.291 552.406 314.291 554.052C314.291 555.692 313.451 556.727 312.113 556.727C310.775 556.727 309.931 555.692 309.931 554.052C309.931 552.406 310.775 551.371 312.113 551.371Z" fill="white"/>
<path d="M211.925 517.858H213.082L210.538 510.812H209.356L206.813 517.858H207.95L208.595 515.953H211.28L211.925 517.858ZM209.923 511.984H209.952L211.002 515.074H208.873L209.923 511.984ZM217.292 517.975C218.914 517.975 220.017 517.12 220.286 515.665H219.197C218.977 516.515 218.279 517.018 217.297 517.018C216.003 517.018 215.183 515.978 215.183 514.332C215.183 512.701 216.013 511.651 217.292 511.651C218.249 511.651 219.001 512.242 219.197 513.146H220.281C220.095 511.676 218.889 510.694 217.292 510.694C215.325 510.694 214.065 512.101 214.065 514.332C214.065 516.578 215.315 517.975 217.292 517.975ZM224.525 517.858V511.754H226.679V510.812H221.273V511.754H223.432V517.858H224.525ZM229.38 517.858V510.812H228.286V517.858H229.38ZM234.582 517.858L237.096 510.812H235.929L234.006 516.627H233.976L232.057 510.812H230.871L233.385 517.858H234.582ZM242.498 517.858H243.655L241.112 510.812H239.93L237.386 517.858H238.524L239.168 515.953H241.854L242.498 517.858ZM240.496 511.984H240.526L241.575 515.074H239.446L240.496 511.984ZM246.24 511.73H247.744C248.588 511.73 249.101 512.208 249.101 512.994C249.101 513.8 248.618 514.264 247.773 514.264H246.24V511.73ZM246.24 515.148H247.744L249.179 517.858H250.439L248.862 514.977C249.721 514.689 250.229 513.917 250.229 512.965C250.229 511.651 249.326 510.812 247.876 510.812H245.146V517.858H246.24V515.148ZM259.124 516.91H255.842V510.812H254.749V517.858H259.124V516.91ZM265.15 516.91H261.869V510.812H260.775V517.858H265.15V516.91ZM271.392 517.858H272.549L270.005 510.812H268.824L266.28 517.858H267.417L268.062 515.953H270.747L271.392 517.858ZM269.39 511.984H269.419L270.469 515.074H268.34L269.39 511.984ZM276.545 517.858L279.059 510.812H277.892L275.969 516.627H275.939L274.02 510.812H272.834L275.348 517.858H276.545ZM285.028 516.91H281.649V514.723H284.847V513.815H281.649V511.754H285.028V510.812H280.555V517.858H285.028V516.91ZM287.959 511.73H289.463C290.307 511.73 290.82 512.208 290.82 512.994C290.82 513.8 290.337 514.264 289.492 514.264H287.959V511.73ZM287.959 515.148H289.463L290.898 517.858H292.158L290.581 514.977C291.44 514.689 291.948 513.917 291.948 512.965C291.948 511.651 291.045 510.812 289.594 510.812H286.865V517.858H287.959V515.148ZM296.769 510.694C294.737 510.694 293.468 512.096 293.468 514.337C293.468 516.578 294.737 517.975 296.769 517.975C298.795 517.975 300.069 516.578 300.069 514.337C300.069 512.096 298.795 510.694 296.769 510.694ZM296.769 511.656C298.106 511.656 298.946 512.692 298.946 514.337C298.946 515.978 298.106 517.013 296.769 517.013C295.431 517.013 294.586 515.978 294.586 514.337C294.586 512.692 295.431 511.656 296.769 511.656Z" fill="#606A7B"/>
<rect x="154.647" y="500.643" width="198.571" height="28.4286" rx="5.35714" stroke="#C7CEDC" stroke-width="0.714286"/>
<g filter="url(#filter2_d_102_688)">
<path d="M131.433 104.573C131.433 101.417 133.991 98.8584 137.147 98.8584H370.718C373.874 98.8584 376.433 101.417 376.433 104.573V153.144C376.433 156.3 373.874 158.858 370.718 158.858H137.147C133.991 158.858 131.433 156.3 131.433 153.144V104.573Z" fill="white"/>
<path d="M193.061 123.287V115.44H195.83V114.228H188.88V115.44H191.655V123.287H193.061ZM196.879 116.896H198.21C198.21 115.929 198.994 115.22 200.03 115.22C200.991 115.22 201.619 115.873 201.619 116.708C201.619 117.417 201.342 117.882 200.15 119.1L196.954 122.32V123.287H203.15V122.101H198.837V122.069L200.897 120.004C202.516 118.384 203.006 117.662 203.006 116.62C203.006 115.195 201.807 114.059 200.03 114.059C198.21 114.059 196.879 115.251 196.879 116.896ZM204.042 120.964C204.042 122.471 205.153 123.488 206.786 123.488C208.55 123.488 209.605 122.446 209.605 120.65V114.228H208.198V120.644C208.198 121.68 207.696 122.232 206.773 122.232C205.988 122.232 205.442 121.718 205.423 120.964H204.042ZM212.807 123.287V120.267L213.736 119.206L216.875 123.287H218.62L214.728 118.24L218.319 114.228H216.649L212.863 118.541H212.807V114.228H211.4V123.287H212.807ZM223.285 123.287V115.44H226.053V114.228H219.104V115.44H221.879V123.287H223.285ZM231.968 123.287H233.456L230.185 114.228H228.665L225.395 123.287H226.857L227.686 120.839H231.139L231.968 123.287ZM229.394 115.735H229.431L230.781 119.709H228.044L229.394 115.735Z" fill="#606A7B"/>
<circle cx="160.003" cy="127.43" r="17.1429" fill="#EBFAF4"/>
<g clip-path="url(#clip3_102_688)">
<path fill-rule="evenodd" clip-rule="evenodd" d="M156.606 119.964L153.963 127.454C153.564 128.322 153.342 129.288 153.342 130.306C153.342 134.085 156.405 137.148 160.184 137.148C163.963 137.148 167.026 134.085 167.026 130.306C167.026 129.28 166.8 128.306 166.395 127.432L163.787 120.044C163.722 119.742 163.619 119.454 163.484 119.185L163.452 119.094H163.437C162.817 117.936 161.594 117.147 160.188 117.147C158.781 117.147 157.559 117.936 156.938 119.094H156.913L156.855 119.259C156.749 119.483 156.665 119.718 156.606 119.964ZM157.553 122.409C157.553 121.828 158.024 121.357 158.606 121.357H161.763C162.345 121.357 162.816 121.828 162.816 122.409C162.816 122.991 162.345 123.462 161.763 123.462H158.606C158.024 123.462 157.553 122.991 157.553 122.409ZM163.869 132.715L162.658 131.524L162.062 132.11C161.651 132.513 161.171 132.759 160.619 132.847C160.081 132.923 159.568 132.841 159.081 132.602L163.869 127.893L163.273 127.306C162.85 126.89 162.369 126.581 161.831 126.38C161.305 126.165 160.767 126.058 160.216 126.058C159.664 126.058 159.12 126.165 158.581 126.38C158.056 126.581 157.581 126.89 157.158 127.306C156.735 127.722 156.421 128.189 156.216 128.706C156.011 129.223 155.908 129.752 155.908 130.294C155.908 130.836 156.011 131.372 156.216 131.902C156.421 132.419 156.735 132.885 157.158 133.301C157.569 133.705 158.036 134.014 158.562 134.228C159.088 134.442 159.639 134.549 160.216 134.549C160.792 134.549 161.344 134.442 161.869 134.228C162.395 134.014 162.863 133.705 163.273 133.301L163.869 132.715ZM157.601 130.294C157.601 129.588 157.857 128.983 158.37 128.479C158.78 128.075 159.254 127.836 159.793 127.76C160.344 127.685 160.863 127.767 161.35 128.006C161.171 128.183 160.914 128.428 160.581 128.744L159.562 129.746L158.562 130.729L157.87 131.41C157.69 131.057 157.601 130.685 157.601 130.294Z" fill="#279668"/>
</g>
<path d="M193.836 143.144H194.759L192.162 136.098H191.292L188.695 143.144H189.618L190.326 141.128H193.128L193.836 143.144ZM191.712 137.168H191.742L192.87 140.381H190.584L191.712 137.168ZM199.733 139.731C199.625 138.818 198.868 137.978 197.599 137.978C196.198 137.978 195.265 139.004 195.265 140.605C195.265 142.241 196.202 143.232 197.609 143.232C198.761 143.232 199.611 142.519 199.742 141.509H198.908C198.761 142.119 198.307 142.485 197.614 142.485C196.735 142.485 196.129 141.787 196.129 140.605C196.129 139.453 196.725 138.725 197.604 138.725C198.351 138.725 198.781 139.179 198.903 139.731H199.733ZM200.976 136.841V138.066H200.219V138.764H200.976V141.826C200.976 142.802 201.337 143.183 202.27 143.183C202.47 143.183 202.704 143.169 202.807 143.144V142.431C202.748 142.441 202.553 142.456 202.455 142.456C202.021 142.456 201.825 142.246 201.825 141.782V138.764H202.812V138.066H201.825V136.841H200.976ZM203.942 143.144H204.792V138.066H203.942V143.144ZM204.367 137.163C204.665 137.163 204.899 136.924 204.899 136.631C204.899 136.333 204.665 136.098 204.367 136.098C204.074 136.098 203.835 136.333 203.835 136.631C203.835 136.924 204.074 137.163 204.367 137.163ZM210.283 138.066H209.399L207.993 142.241H207.974L206.572 138.066H205.679L207.549 143.144H208.418L210.283 138.066ZM212.708 142.51C212.097 142.51 211.692 142.192 211.692 141.709C211.692 141.23 212.083 140.927 212.766 140.884L214.124 140.801V141.216C214.124 141.948 213.509 142.51 212.708 142.51ZM212.517 143.232C213.201 143.232 213.845 142.851 214.148 142.27H214.168V143.144H214.973V139.634C214.973 138.623 214.221 137.978 213.03 137.978C211.829 137.978 211.077 138.652 211.018 139.531H211.839C211.946 139.033 212.356 138.725 213.01 138.725C213.714 138.725 214.124 139.096 214.124 139.717V140.141L212.669 140.224C211.497 140.293 210.828 140.84 210.828 141.709C210.828 142.622 211.507 143.232 212.517 143.232ZM218.155 143.232C218.887 143.232 219.468 142.871 219.795 142.285H219.81V143.144H220.621V136.098H219.771V138.891H219.752C219.449 138.335 218.863 137.978 218.135 137.978C216.856 137.978 215.982 139.013 215.982 140.605C215.982 142.197 216.861 143.232 218.155 143.232ZM218.316 138.725C219.19 138.725 219.776 139.472 219.776 140.605C219.776 141.743 219.19 142.485 218.316 142.485C217.418 142.485 216.851 141.758 216.851 140.605C216.851 139.458 217.418 138.725 218.316 138.725ZM224.051 143.232C225.453 143.232 226.4 142.221 226.4 140.605C226.4 138.984 225.453 137.978 224.051 137.978C222.645 137.978 221.698 138.984 221.698 140.605C221.698 142.221 222.645 143.232 224.051 143.232ZM224.051 142.485C223.153 142.485 222.562 141.802 222.562 140.605C222.562 139.409 223.153 138.725 224.051 138.725C224.95 138.725 225.536 139.409 225.536 140.605C225.536 141.802 224.95 142.485 224.051 142.485ZM231.703 138.716C232.504 138.716 233.036 139.321 233.056 140.171H230.297C230.351 139.326 230.907 138.716 231.703 138.716ZM233.036 141.689C232.895 142.168 232.421 142.495 231.777 142.495C230.863 142.495 230.292 141.855 230.292 140.884V140.835H233.935V140.512C233.935 138.974 233.09 137.978 231.718 137.978C230.317 137.978 229.418 139.048 229.418 140.625C229.418 142.221 230.302 143.232 231.757 143.232C232.865 143.232 233.725 142.578 233.871 141.689H233.036ZM235.017 143.144H235.866V136.098H235.017V143.144ZM241.238 143.144H242.088V136.098H241.228L239.353 137.446V138.33L241.218 137.031H241.238V143.144ZM245.85 143.144H246.7V136.098H245.84L243.965 137.446V138.33L245.831 137.031H245.85V143.144ZM248.822 144.643L251.317 136.098H250.589L248.094 144.643H248.822ZM254.533 143.261C256.173 143.261 257.12 141.841 257.12 139.614C257.12 137.402 256.168 135.981 254.533 135.981C252.897 135.981 251.935 137.412 251.935 139.619C251.935 141.845 252.887 143.261 254.533 143.261ZM254.533 142.495C253.429 142.495 252.819 141.372 252.819 139.614C252.819 137.895 253.444 136.753 254.533 136.753C255.621 136.753 256.237 137.885 256.237 139.619C256.237 141.377 255.631 142.495 254.533 142.495ZM260.009 143.144H260.859V136.098H259.999L258.124 137.446V138.33L259.989 137.031H260.009V143.144ZM262.98 144.643L265.476 136.098H264.748L262.253 144.643H262.98ZM266.182 138.135H267.031C267.031 137.344 267.685 136.748 268.555 136.748C269.36 136.748 269.878 137.3 269.878 137.993C269.878 138.579 269.658 138.96 268.706 139.951L266.225 142.539V143.144H270.874V142.363H267.432V142.344L269.106 140.625C270.4 139.297 270.757 138.716 270.757 137.939C270.757 136.87 269.858 135.981 268.555 135.981C267.197 135.981 266.182 136.899 266.182 138.135ZM274.534 143.261C276.175 143.261 277.122 141.841 277.122 139.614C277.122 137.402 276.17 135.981 274.534 135.981C272.898 135.981 271.936 137.412 271.936 139.619C271.936 141.845 272.888 143.261 274.534 143.261ZM274.534 142.495C273.43 142.495 272.82 141.372 272.82 139.614C272.82 137.895 273.445 136.753 274.534 136.753C275.623 136.753 276.238 137.885 276.238 139.619C276.238 141.377 275.633 142.495 274.534 142.495ZM278.17 138.135H279.019C279.019 137.344 279.673 136.748 280.543 136.748C281.348 136.748 281.866 137.3 281.866 137.993C281.866 138.579 281.646 138.96 280.694 139.951L278.213 142.539V143.144H282.862V142.363H279.42V142.344L281.094 140.625C282.388 139.297 282.745 138.716 282.745 137.939C282.745 136.87 281.846 135.981 280.543 135.981C279.185 135.981 278.17 136.899 278.17 138.135ZM285.853 143.144H286.703V136.098H285.843L283.968 137.446V138.33L285.833 137.031H285.853V143.144Z" fill="#8D96A5"/>
<path d="M327.203 120.287V113.241H326.324V116.288H322.457V113.241H321.578V120.287H322.457V117.079H326.324V120.287H327.203ZM330.146 119.652C329.535 119.652 329.13 119.335 329.13 118.852C329.13 118.373 329.521 118.07 330.204 118.026L331.562 117.943V118.358C331.562 119.091 330.946 119.652 330.146 119.652ZM329.955 120.375C330.639 120.375 331.283 119.994 331.586 119.413H331.606V120.287H332.411V116.776C332.411 115.766 331.659 115.121 330.468 115.121C329.267 115.121 328.515 115.795 328.456 116.674H329.276C329.384 116.176 329.794 115.868 330.448 115.868C331.151 115.868 331.562 116.239 331.562 116.859V117.284L330.107 117.367C328.935 117.436 328.266 117.982 328.266 118.852C328.266 119.765 328.944 120.375 329.955 120.375ZM336.193 120.375C337.492 120.375 338.352 119.345 338.352 117.748C338.352 116.156 337.487 115.121 336.208 115.121C335.49 115.121 334.899 115.478 334.582 116.059H334.562V113.241H333.713V120.287H334.523V119.428H334.543C334.87 120.014 335.451 120.375 336.193 120.375ZM336.027 115.868C336.926 115.868 337.482 116.596 337.482 117.748C337.482 118.91 336.926 119.628 336.027 119.628C335.168 119.628 334.558 118.881 334.558 117.748C334.558 116.62 335.168 115.868 336.027 115.868ZM339.438 120.287H340.288V115.209H339.438V120.287ZM339.863 114.306C340.161 114.306 340.395 114.066 340.395 113.773C340.395 113.476 340.161 113.241 339.863 113.241C339.57 113.241 339.331 113.476 339.331 113.773C339.331 114.066 339.57 114.306 339.863 114.306ZM341.658 120.287H342.508V113.241H341.658V120.287ZM343.877 120.287H344.727V115.209H343.877V120.287ZM344.302 114.306C344.6 114.306 344.835 114.066 344.835 113.773C344.835 113.476 344.6 113.241 344.302 113.241C344.009 113.241 343.77 113.476 343.77 113.773C343.77 114.066 344.009 114.306 344.302 114.306ZM346.327 113.983V115.209H345.57V115.907H346.327V118.969C346.327 119.945 346.688 120.326 347.621 120.326C347.821 120.326 348.055 120.312 348.158 120.287V119.574C348.099 119.584 347.904 119.599 347.806 119.599C347.371 119.599 347.176 119.389 347.176 118.925V115.907H348.162V115.209H347.176V113.983H346.327ZM350.826 119.652C350.216 119.652 349.811 119.335 349.811 118.852C349.811 118.373 350.201 118.07 350.885 118.026L352.242 117.943V118.358C352.242 119.091 351.627 119.652 350.826 119.652ZM350.636 120.375C351.32 120.375 351.964 119.994 352.267 119.413H352.286V120.287H353.092V116.776C353.092 115.766 352.34 115.121 351.149 115.121C349.948 115.121 349.196 115.795 349.137 116.674H349.957C350.065 116.176 350.475 115.868 351.129 115.868C351.832 115.868 352.242 116.239 352.242 116.859V117.284L350.787 117.367C349.615 117.436 348.947 117.982 348.947 118.852C348.947 119.765 349.625 120.375 350.636 120.375ZM356.274 120.375C357.006 120.375 357.587 120.014 357.914 119.428H357.929V120.287H358.739V113.241H357.89V116.034H357.87C357.567 115.478 356.982 115.121 356.254 115.121C354.975 115.121 354.101 116.156 354.101 117.748C354.101 119.34 354.98 120.375 356.274 120.375ZM356.435 115.868C357.309 115.868 357.895 116.615 357.895 117.748C357.895 118.886 357.309 119.628 356.435 119.628C355.536 119.628 354.97 118.9 354.97 117.748C354.97 116.601 355.536 115.868 356.435 115.868ZM362.17 120.375C363.571 120.375 364.519 119.364 364.519 117.748C364.519 116.127 363.571 115.121 362.17 115.121C360.764 115.121 359.816 116.127 359.816 117.748C359.816 119.364 360.764 120.375 362.17 120.375ZM362.17 119.628C361.271 119.628 360.681 118.944 360.681 117.748C360.681 116.552 361.271 115.868 362.17 115.868C363.068 115.868 363.654 116.552 363.654 117.748C363.654 118.944 363.068 119.628 362.17 119.628Z" fill="#33C88C"/>
</g>
<g filter="url(#filter3_d_102_688)">
<path d="M131.433 173.143C131.433 169.987 133.991 167.428 137.147 167.428H370.718C373.874 167.428 376.433 169.987 376.433 173.143V221.714C376.433 224.87 373.874 227.428 370.718 227.428H137.147C133.991 227.428 131.433 224.87 131.433 221.714V173.143Z" fill="white"/>
<path d="M193.231 192.008C195.315 192.008 196.734 190.909 197.079 189.039H195.679C195.397 190.131 194.499 190.778 193.237 190.778C191.574 190.778 190.519 189.44 190.519 187.325C190.519 185.228 191.586 183.878 193.231 183.878C194.461 183.878 195.428 184.638 195.679 185.799H197.073C196.834 183.91 195.284 182.648 193.231 182.648C190.701 182.648 189.081 184.456 189.081 187.325C189.081 190.213 190.688 192.008 193.231 192.008ZM198.342 191.857H199.698V182.798H198.342V191.857ZM201.242 191.857H202.598V185.253H201.242V191.857ZM201.92 184.186C202.354 184.186 202.699 183.834 202.699 183.407C202.699 182.974 202.354 182.629 201.92 182.629C201.487 182.629 201.136 182.974 201.136 183.407C201.136 183.834 201.487 184.186 201.92 184.186ZM206.855 186.226C207.803 186.226 208.444 186.936 208.475 187.946H205.173C205.242 186.948 205.907 186.226 206.855 186.226ZM208.469 189.918C208.287 190.495 207.715 190.884 206.943 190.884C205.857 190.884 205.166 190.125 205.166 188.976V188.894H209.831V188.43C209.831 186.427 208.688 185.134 206.855 185.134C204.991 185.134 203.798 186.515 203.798 188.587C203.798 190.671 204.972 191.983 206.912 191.983C208.425 191.983 209.567 191.123 209.756 189.918H208.469ZM210.993 191.857H212.349V188.009C212.349 186.986 212.964 186.308 213.918 186.308C214.86 186.308 215.325 186.854 215.325 187.846V191.857H216.687V187.582C216.687 186.069 215.852 185.14 214.395 185.14C213.378 185.14 212.675 185.605 212.317 186.358H212.286V185.253H210.993V191.857ZM218.502 183.69V185.253H217.541V186.327H218.502V190.118C218.502 191.393 219.023 191.901 220.36 191.901C220.661 191.901 220.962 191.876 221.113 191.839V190.765C221.025 190.784 220.806 190.796 220.667 190.796C220.115 190.796 219.864 190.539 219.864 189.968V186.327H221.119V185.253H219.864V183.69H218.502ZM224.943 186.226C225.891 186.226 226.531 186.936 226.563 187.946H223.261C223.33 186.948 223.995 186.226 224.943 186.226ZM226.557 189.918C226.374 190.495 225.803 190.884 225.031 190.884C223.945 190.884 223.254 190.125 223.254 188.976V188.894H227.919V188.43C227.919 186.427 226.776 185.134 224.943 185.134C223.079 185.134 221.886 186.515 221.886 188.587C221.886 190.671 223.06 191.983 225 191.983C226.513 191.983 227.655 191.123 227.843 189.918H226.557ZM228.961 187.124C228.961 188.084 229.583 188.687 230.838 188.976L231.912 189.227C232.634 189.39 232.879 189.641 232.879 190.068C232.879 190.608 232.377 190.947 231.56 190.947C230.732 190.947 230.261 190.608 230.135 189.918H228.792C228.917 191.173 229.909 191.983 231.56 191.983C233.117 191.983 234.241 191.154 234.241 189.949C234.241 188.995 233.726 188.467 232.377 188.153L231.303 187.909C230.587 187.745 230.286 187.463 230.286 187.049C230.286 186.521 230.776 186.163 231.51 186.163C232.27 186.163 232.741 186.565 232.816 187.205H234.09C234.046 185.988 233.048 185.134 231.51 185.134C229.991 185.134 228.961 185.944 228.961 187.124ZM242.384 191.857L245.617 182.798H244.117L241.644 190.275H241.606L239.139 182.798H237.613L240.846 191.857H242.384ZM248.135 191.857V182.798H246.729V191.857H248.135ZM249.912 182.798V191.857H251.319V188.762H253.265C255.041 188.762 256.291 187.545 256.291 185.774C256.291 184.01 255.067 182.798 253.309 182.798H249.912ZM251.319 183.985H252.938C254.156 183.985 254.853 184.638 254.853 185.78C254.853 186.923 254.156 187.582 252.932 187.582H251.319V183.985Z" fill="#606A7B"/>
<circle cx="160.003" cy="196" r="17.1429" fill="#ECEDF3"/>
<g clip-path="url(#clip4_102_688)">
<path fill-rule="evenodd" clip-rule="evenodd" d="M156.606 188.531L153.963 196.021C153.564 196.889 153.342 197.855 153.342 198.873C153.342 202.652 156.405 205.715 160.184 205.715C163.963 205.715 167.026 202.652 167.026 198.873C167.026 197.847 166.8 196.873 166.395 195.999L163.787 188.611C163.722 188.309 163.619 188.021 163.484 187.753L163.452 187.661H163.437C162.817 186.503 161.594 185.715 160.188 185.715C158.781 185.715 157.559 186.503 156.938 187.661H156.913L156.855 187.826C156.749 188.05 156.665 188.286 156.606 188.531ZM157.553 190.978C157.553 190.396 158.024 189.925 158.606 189.925H161.763C162.345 189.925 162.816 190.396 162.816 190.978C162.816 191.559 162.345 192.03 161.763 192.03H158.606C158.024 192.03 157.553 191.559 157.553 190.978ZM163.869 201.283L162.658 200.092L162.062 200.678C161.651 201.082 161.171 201.328 160.619 201.416C160.081 201.492 159.568 201.41 159.081 201.17L163.869 196.461L163.273 195.875C162.85 195.459 162.369 195.15 161.831 194.948C161.305 194.734 160.767 194.627 160.216 194.627C159.664 194.627 159.12 194.734 158.581 194.948C158.056 195.15 157.581 195.459 157.158 195.875C156.735 196.291 156.421 196.757 156.216 197.274C156.011 197.791 155.908 198.321 155.908 198.863C155.908 199.405 156.011 199.941 156.216 200.47C156.421 200.987 156.735 201.454 157.158 201.87C157.569 202.273 158.036 202.582 158.562 202.796C159.088 203.011 159.639 203.118 160.216 203.118C160.792 203.118 161.344 203.011 161.869 202.796C162.395 202.582 162.863 202.273 163.273 201.87L163.869 201.283ZM157.601 198.863C157.601 198.157 157.857 197.552 158.37 197.047C158.78 196.644 159.254 196.404 159.793 196.329C160.344 196.253 160.863 196.335 161.35 196.575C161.171 196.751 160.914 196.997 160.581 197.312L159.562 198.314L158.562 199.298L157.87 199.979C157.69 199.626 157.601 199.254 157.601 198.863Z" fill="#606A7B"/>
</g>
<path d="M193.836 211.715H194.759L192.162 204.669H191.292L188.695 211.715H189.618L190.326 209.698H193.128L193.836 211.715ZM191.712 205.738H191.742L192.87 208.951H190.584L191.712 205.738ZM199.733 208.302C199.625 207.388 198.868 206.549 197.599 206.549C196.198 206.549 195.265 207.574 195.265 209.176C195.265 210.811 196.202 211.802 197.609 211.802C198.761 211.802 199.611 211.09 199.742 210.079H198.908C198.761 210.689 198.307 211.055 197.614 211.055C196.735 211.055 196.129 210.357 196.129 209.176C196.129 208.023 196.725 207.296 197.604 207.296C198.351 207.296 198.781 207.75 198.903 208.302H199.733ZM200.976 205.411V206.636H200.219V207.335H200.976V210.396C200.976 211.373 201.337 211.754 202.27 211.754C202.47 211.754 202.704 211.739 202.807 211.715V211.002C202.748 211.011 202.553 211.026 202.455 211.026C202.021 211.026 201.825 210.816 201.825 210.352V207.335H202.812V206.636H201.825V205.411H200.976ZM203.942 211.715H204.792V206.636H203.942V211.715ZM204.367 205.733C204.665 205.733 204.899 205.494 204.899 205.201C204.899 204.903 204.665 204.669 204.367 204.669C204.074 204.669 203.835 204.903 203.835 205.201C203.835 205.494 204.074 205.733 204.367 205.733ZM210.283 206.636H209.399L207.993 210.811H207.974L206.572 206.636H205.679L207.549 211.715H208.418L210.283 206.636ZM212.708 211.08C212.097 211.08 211.692 210.762 211.692 210.279C211.692 209.801 212.083 209.498 212.766 209.454L214.124 209.371V209.786C214.124 210.518 213.509 211.08 212.708 211.08ZM212.517 211.802C213.201 211.802 213.845 211.422 214.148 210.841H214.168V211.715H214.973V208.204C214.973 207.193 214.221 206.549 213.03 206.549C211.829 206.549 211.077 207.222 211.018 208.101H211.839C211.946 207.603 212.356 207.296 213.01 207.296C213.714 207.296 214.124 207.667 214.124 208.287V208.712L212.669 208.795C211.497 208.863 210.828 209.41 210.828 210.279C210.828 211.192 211.507 211.802 212.517 211.802ZM218.155 211.802C218.887 211.802 219.468 211.441 219.795 210.855H219.81V211.715H220.621V204.669H219.771V207.462H219.752C219.449 206.905 218.863 206.549 218.135 206.549C216.856 206.549 215.982 207.584 215.982 209.176C215.982 210.767 216.861 211.802 218.155 211.802ZM218.316 207.296C219.19 207.296 219.776 208.043 219.776 209.176C219.776 210.313 219.19 211.055 218.316 211.055C217.418 211.055 216.851 210.328 216.851 209.176C216.851 208.028 217.418 207.296 218.316 207.296ZM224.051 211.802C225.453 211.802 226.4 210.792 226.4 209.176C226.4 207.554 225.453 206.549 224.051 206.549C222.645 206.549 221.698 207.554 221.698 209.176C221.698 210.792 222.645 211.802 224.051 211.802ZM224.051 211.055C223.153 211.055 222.562 210.372 222.562 209.176C222.562 207.979 223.153 207.296 224.051 207.296C224.95 207.296 225.536 207.979 225.536 209.176C225.536 210.372 224.95 211.055 224.051 211.055ZM231.703 207.286C232.504 207.286 233.036 207.891 233.056 208.741H230.297C230.351 207.896 230.907 207.286 231.703 207.286ZM233.036 210.26C232.895 210.738 232.421 211.065 231.777 211.065C230.863 211.065 230.292 210.426 230.292 209.454V209.405H233.935V209.083C233.935 207.545 233.09 206.549 231.718 206.549C230.317 206.549 229.418 207.618 229.418 209.195C229.418 210.792 230.302 211.802 231.757 211.802C232.865 211.802 233.725 211.148 233.871 210.26H233.036ZM235.017 211.715H235.866V204.669H235.017V211.715ZM241.907 211.832C243.548 211.832 244.495 210.411 244.495 208.184C244.495 205.972 243.543 204.552 241.907 204.552C240.271 204.552 239.309 205.982 239.309 208.189C239.309 210.416 240.261 211.832 241.907 211.832ZM241.907 211.065C240.803 211.065 240.193 209.942 240.193 208.184C240.193 206.466 240.818 205.323 241.907 205.323C242.996 205.323 243.611 206.456 243.611 208.189C243.611 209.947 243.006 211.065 241.907 211.065ZM248.106 211.832C249.6 211.832 250.665 210.992 250.665 209.81C250.665 208.936 250.059 208.214 249.146 207.999V207.979C249.927 207.73 250.401 207.139 250.401 206.407C250.401 205.333 249.439 204.552 248.106 204.552C246.783 204.552 245.806 205.338 245.806 206.402C245.806 207.144 246.29 207.74 247.066 207.979V207.999C246.158 208.209 245.552 208.931 245.552 209.81C245.552 210.987 246.617 211.832 248.106 211.832ZM248.106 211.065C247.139 211.065 246.446 210.513 246.446 209.747C246.446 208.975 247.139 208.424 248.106 208.424C249.078 208.424 249.766 208.97 249.766 209.747C249.766 210.513 249.078 211.065 248.106 211.065ZM248.106 207.652C247.266 207.652 246.68 207.169 246.68 206.485C246.68 205.797 247.266 205.308 248.106 205.308C248.946 205.308 249.532 205.792 249.532 206.485C249.532 207.169 248.941 207.652 248.106 207.652ZM252.015 213.214L254.51 204.669H253.783L251.288 213.214H252.015ZM257.726 211.832C259.366 211.832 260.314 210.411 260.314 208.184C260.314 205.972 259.362 204.552 257.726 204.552C256.09 204.552 255.128 205.982 255.128 208.189C255.128 210.416 256.08 211.832 257.726 211.832ZM257.726 211.065C256.622 211.065 256.012 209.942 256.012 208.184C256.012 206.466 256.637 205.323 257.726 205.323C258.815 205.323 259.43 206.456 259.43 208.189C259.43 209.947 258.825 211.065 257.726 211.065ZM264.052 211.837C265.497 211.837 266.547 210.821 266.547 209.429C266.547 208.092 265.551 207.1 264.208 207.1C263.251 207.1 262.528 207.608 262.24 208.243H262.226C262.255 206.368 262.924 205.323 264.101 205.323C264.823 205.323 265.351 205.689 265.556 206.324H266.449C266.23 205.245 265.307 204.547 264.11 204.547C262.387 204.547 261.376 205.938 261.376 208.311C261.376 210.933 262.753 211.837 264.052 211.837ZM264.042 211.055C263.139 211.055 262.436 210.338 262.436 209.434C262.436 208.536 263.124 207.872 264.057 207.872C264.989 207.872 265.653 208.536 265.653 209.459C265.653 210.347 264.941 211.055 264.042 211.055ZM267.824 213.214L270.319 204.669H269.592L267.097 213.214H267.824ZM271.025 206.705H271.875C271.875 205.914 272.529 205.318 273.398 205.318C274.204 205.318 274.722 205.87 274.722 206.563C274.722 207.149 274.502 207.53 273.55 208.521L271.069 211.109V211.715H275.718V210.933H272.275V210.914L273.95 209.195C275.244 207.867 275.6 207.286 275.6 206.51C275.6 205.44 274.702 204.552 273.398 204.552C272.041 204.552 271.025 205.469 271.025 206.705ZM279.378 211.832C281.018 211.832 281.966 210.411 281.966 208.184C281.966 205.972 281.013 204.552 279.378 204.552C277.742 204.552 276.78 205.982 276.78 208.189C276.78 210.416 277.732 211.832 279.378 211.832ZM279.378 211.065C278.274 211.065 277.664 209.942 277.664 208.184C277.664 206.466 278.289 205.323 279.378 205.323C280.467 205.323 281.082 206.456 281.082 208.189C281.082 209.947 280.476 211.065 279.378 211.065ZM283.013 206.705H283.863C283.863 205.914 284.517 205.318 285.386 205.318C286.192 205.318 286.71 205.87 286.71 206.563C286.71 207.149 286.49 207.53 285.538 208.521L283.057 211.109V211.715H287.706V210.933H284.263V210.914L285.938 209.195C287.232 207.867 287.588 207.286 287.588 206.51C287.588 205.44 286.69 204.552 285.386 204.552C284.029 204.552 283.013 205.469 283.013 206.705ZM291.366 211.832C293.006 211.832 293.954 210.411 293.954 208.184C293.954 205.972 293.001 204.552 291.366 204.552C289.73 204.552 288.768 205.982 288.768 208.189C288.768 210.416 289.72 211.832 291.366 211.832ZM291.366 211.065C290.262 211.065 289.652 209.942 289.652 208.184C289.652 206.466 290.277 205.323 291.366 205.323C292.455 205.323 293.07 206.456 293.07 208.189C293.07 209.947 292.464 211.065 291.366 211.065Z" fill="#8D96A5"/>
<path d="M305.926 181.812V188.857H308.294C310.389 188.857 311.62 187.554 311.62 185.332C311.62 183.115 310.384 181.812 308.294 181.812H305.926ZM306.805 182.603H308.236C309.837 182.603 310.721 183.579 310.721 185.342C310.721 187.09 309.833 188.066 308.236 188.066H306.805V182.603ZM314.796 184.429C315.597 184.429 316.129 185.034 316.149 185.884H313.39C313.444 185.039 314 184.429 314.796 184.429ZM316.129 187.402C315.988 187.881 315.514 188.208 314.87 188.208C313.956 188.208 313.385 187.568 313.385 186.597V186.548H317.028V186.226C317.028 184.688 316.183 183.691 314.811 183.691C313.41 183.691 312.511 184.761 312.511 186.338C312.511 187.935 313.395 188.945 314.85 188.945C315.958 188.945 316.818 188.291 316.964 187.402H316.129ZM317.978 185.181C317.978 185.913 318.442 186.357 319.399 186.587L320.204 186.782C320.785 186.924 320.986 187.134 320.986 187.5C320.986 187.959 320.561 188.252 319.872 188.252C319.184 188.252 318.793 187.974 318.691 187.393H317.841C317.939 188.345 318.681 188.945 319.872 188.945C321.005 188.945 321.84 188.32 321.84 187.437C321.84 186.709 321.469 186.309 320.444 186.06L319.638 185.864C319.072 185.728 318.813 185.488 318.813 185.137C318.813 184.692 319.223 184.385 319.843 184.385C320.468 184.385 320.859 184.712 320.922 185.244H321.733C321.698 184.346 320.956 183.691 319.843 183.691C318.744 183.691 317.978 184.312 317.978 185.181ZM322.946 188.857H323.796V185.898C323.796 185.02 324.318 184.443 325.163 184.443C325.959 184.443 326.364 184.927 326.364 185.732V188.857H327.214V185.576C327.214 184.443 326.54 183.691 325.427 183.691C324.655 183.691 324.099 184.023 323.816 184.59H323.796V181.812H322.946V188.857ZM330.146 188.223C329.536 188.223 329.131 187.905 329.131 187.422C329.131 186.943 329.521 186.641 330.205 186.597L331.562 186.514V186.929C331.562 187.661 330.947 188.223 330.146 188.223ZM329.956 188.945C330.64 188.945 331.284 188.564 331.587 187.983H331.606V188.857H332.412V185.347C332.412 184.336 331.66 183.691 330.469 183.691C329.268 183.691 328.516 184.365 328.457 185.244H329.277C329.385 184.746 329.795 184.438 330.449 184.438C331.152 184.438 331.562 184.81 331.562 185.43V185.854L330.107 185.938C328.936 186.006 328.267 186.553 328.267 187.422C328.267 188.335 328.945 188.945 329.956 188.945ZM336.194 188.945C337.493 188.945 338.352 187.915 338.352 186.318C338.352 184.727 337.488 183.691 336.209 183.691C335.491 183.691 334.9 184.048 334.583 184.629H334.563V181.812H333.714V188.857H334.524V187.998H334.544C334.871 188.584 335.452 188.945 336.194 188.945ZM336.028 184.438C336.927 184.438 337.483 185.166 337.483 186.318C337.483 187.48 336.927 188.198 336.028 188.198C335.169 188.198 334.558 187.451 334.558 186.318C334.558 185.19 335.169 184.438 336.028 184.438ZM339.439 188.857H340.289V183.779H339.439V188.857ZM339.864 182.876C340.162 182.876 340.396 182.637 340.396 182.344C340.396 182.046 340.162 181.812 339.864 181.812C339.571 181.812 339.332 182.046 339.332 182.344C339.332 182.637 339.571 182.876 339.864 182.876ZM341.659 188.857H342.508V181.812H341.659V188.857ZM343.878 188.857H344.728V183.779H343.878V188.857ZM344.303 182.876C344.601 182.876 344.835 182.637 344.835 182.344C344.835 182.046 344.601 181.812 344.303 181.812C344.01 181.812 343.771 182.046 343.771 182.344C343.771 182.637 344.01 182.876 344.303 182.876ZM346.327 182.554V183.779H345.571V184.478H346.327V187.539C346.327 188.516 346.689 188.896 347.621 188.896C347.822 188.896 348.056 188.882 348.158 188.857V188.145C348.1 188.154 347.905 188.169 347.807 188.169C347.372 188.169 347.177 187.959 347.177 187.495V184.478H348.163V183.779H347.177V182.554H346.327ZM350.827 188.223C350.217 188.223 349.812 187.905 349.812 187.422C349.812 186.943 350.202 186.641 350.886 186.597L352.243 186.514V186.929C352.243 187.661 351.628 188.223 350.827 188.223ZM350.637 188.945C351.32 188.945 351.965 188.564 352.268 187.983H352.287V188.857H353.093V185.347C353.093 184.336 352.341 183.691 351.15 183.691C349.948 183.691 349.196 184.365 349.138 185.244H349.958C350.066 184.746 350.476 184.438 351.13 184.438C351.833 184.438 352.243 184.81 352.243 185.43V185.854L350.788 185.938C349.616 186.006 348.947 186.553 348.947 187.422C348.947 188.335 349.626 188.945 350.637 188.945ZM356.274 188.945C357.007 188.945 357.588 188.584 357.915 187.998H357.93V188.857H358.74V181.812H357.891V184.604H357.871C357.568 184.048 356.982 183.691 356.255 183.691C354.976 183.691 354.102 184.727 354.102 186.318C354.102 187.91 354.98 188.945 356.274 188.945ZM356.436 184.438C357.31 184.438 357.895 185.186 357.895 186.318C357.895 187.456 357.31 188.198 356.436 188.198C355.537 188.198 354.971 187.471 354.971 186.318C354.971 185.171 355.537 184.438 356.436 184.438ZM362.171 188.945C363.572 188.945 364.519 187.935 364.519 186.318C364.519 184.697 363.572 183.691 362.171 183.691C360.764 183.691 359.817 184.697 359.817 186.318C359.817 187.935 360.764 188.945 362.171 188.945ZM362.171 188.198C361.272 188.198 360.681 187.515 360.681 186.318C360.681 185.122 361.272 184.438 362.171 184.438C363.069 184.438 363.655 185.122 363.655 186.318C363.655 187.515 363.069 188.198 362.171 188.198Z" fill="#6B768A"/>
</g>
<g filter="url(#filter4_d_102_688)">
<path d="M131.433 241.714C131.433 238.558 133.991 236 137.147 236H370.718C373.874 236 376.433 238.558 376.433 241.714V290.285C376.433 293.441 373.874 296 370.718 296H137.147C133.991 296 131.433 293.441 131.433 290.285V241.714Z" fill="white"/>
<path d="M190.814 252.55H192.747C193.834 252.55 194.493 253.165 194.493 254.176C194.493 255.212 193.871 255.808 192.785 255.808H190.814V252.55ZM190.814 256.945H192.747L194.593 260.429H196.213L194.185 256.725C195.29 256.355 195.943 255.363 195.943 254.138C195.943 252.45 194.782 251.37 192.917 251.37H189.408V260.429H190.814V256.945ZM197.205 254.038H198.536C198.536 253.071 199.321 252.362 200.357 252.362C201.317 252.362 201.945 253.015 201.945 253.85C201.945 254.559 201.669 255.024 200.476 256.242L197.281 259.462V260.429H203.477V259.242H199.164V259.211L201.223 257.146C202.843 255.526 203.332 254.804 203.332 253.762C203.332 252.337 202.133 251.2 200.357 251.2C198.536 251.2 197.205 252.393 197.205 254.038ZM204.965 251.37V260.429H208.161C210.86 260.429 212.448 258.746 212.448 255.884C212.448 253.027 210.854 251.37 208.161 251.37H204.965ZM206.371 252.582H208.029C209.944 252.582 211.011 253.762 211.011 255.896C211.011 258.037 209.95 259.211 208.029 259.211H206.371V252.582ZM213.692 254.038H215.023C215.023 253.071 215.807 252.362 216.843 252.362C217.804 252.362 218.432 253.015 218.432 253.85C218.432 254.559 218.155 255.024 216.963 256.242L213.767 259.462V260.429H219.963V259.242H215.651V259.211L217.71 257.146C219.329 255.526 219.819 254.804 219.819 253.762C219.819 252.337 218.62 251.2 216.843 251.2C215.023 251.2 213.692 252.393 213.692 254.038ZM221.452 251.37V260.429H222.858V257.334H224.804C226.581 257.334 227.83 256.116 227.83 254.346C227.83 252.582 226.606 251.37 224.848 251.37H221.452ZM222.858 252.556H224.478C225.696 252.556 226.392 253.209 226.392 254.352C226.392 255.495 225.696 256.154 224.471 256.154H222.858V252.556ZM233.085 251.219C230.474 251.219 228.841 253.021 228.841 255.903C228.841 258.784 230.474 260.58 233.085 260.58C235.69 260.58 237.329 258.784 237.329 255.903C237.329 253.021 235.69 251.219 233.085 251.219ZM233.085 252.456C234.805 252.456 235.885 253.787 235.885 255.903C235.885 258.012 234.805 259.343 233.085 259.343C231.365 259.343 230.279 258.012 230.279 255.903C230.279 253.787 231.365 252.456 233.085 252.456Z" fill="#606A7B"/>
<circle cx="160.003" cy="264.57" r="17.1429" fill="#ECEDF3"/>
<g clip-path="url(#clip5_102_688)">
<path fill-rule="evenodd" clip-rule="evenodd" d="M156.606 257.101L153.963 264.591C153.564 265.459 153.342 266.425 153.342 267.443C153.342 271.222 156.405 274.285 160.184 274.285C163.963 274.285 167.026 271.222 167.026 267.443C167.026 266.416 166.8 265.443 166.395 264.569L163.787 257.181C163.722 256.879 163.619 256.591 163.484 256.322L163.452 256.231H163.437C162.817 255.073 161.594 254.284 160.188 254.284C158.781 254.284 157.559 255.073 156.938 256.231H156.913L156.855 256.396C156.749 256.619 156.665 256.855 156.606 257.101ZM157.553 259.547C157.553 258.966 158.024 258.494 158.606 258.494H161.763C162.345 258.494 162.816 258.966 162.816 259.547C162.816 260.128 162.345 260.6 161.763 260.6H158.606C158.024 260.6 157.553 260.128 157.553 259.547ZM163.869 269.854L162.658 268.663L162.062 269.249C161.651 269.652 161.171 269.898 160.619 269.986C160.081 270.062 159.568 269.98 159.081 269.741L163.869 265.032L163.273 264.445C162.85 264.029 162.369 263.72 161.831 263.519C161.305 263.304 160.767 263.197 160.216 263.197C159.664 263.197 159.12 263.304 158.581 263.519C158.056 263.72 157.581 264.029 157.158 264.445C156.735 264.861 156.421 265.328 156.216 265.845C156.011 266.362 155.908 266.891 155.908 267.433C155.908 267.976 156.011 268.511 156.216 269.041C156.421 269.558 156.735 270.024 157.158 270.44C157.569 270.844 158.036 271.153 158.562 271.367C159.088 271.581 159.639 271.688 160.216 271.688C160.792 271.688 161.344 271.581 161.869 271.367C162.395 271.153 162.863 270.844 163.273 270.44L163.869 269.854ZM157.601 267.433C157.601 266.727 157.857 266.122 158.37 265.618C158.78 265.214 159.254 264.975 159.793 264.899C160.344 264.824 160.863 264.906 161.35 265.145C161.171 265.322 160.914 265.567 160.581 265.883L159.562 266.885L158.562 267.868L157.87 268.549C157.69 268.196 157.601 267.824 157.601 267.433Z" fill="#606A7B"/>
</g>
<path d="M193.836 280.286H194.759L192.162 273.24H191.292L188.695 280.286H189.618L190.326 278.27H193.128L193.836 280.286ZM191.712 274.31H191.742L192.87 277.522H190.584L191.712 274.31ZM199.733 276.873C199.625 275.96 198.868 275.12 197.599 275.12C196.198 275.12 195.265 276.146 195.265 277.747C195.265 279.383 196.202 280.374 197.609 280.374C198.761 280.374 199.611 279.661 199.742 278.65H198.908C198.761 279.261 198.307 279.627 197.614 279.627C196.735 279.627 196.129 278.929 196.129 277.747C196.129 276.595 196.725 275.867 197.604 275.867C198.351 275.867 198.781 276.321 198.903 276.873H199.733ZM200.976 273.982V275.208H200.219V275.906H200.976V278.968C200.976 279.944 201.337 280.325 202.27 280.325C202.47 280.325 202.704 280.311 202.807 280.286V279.573C202.748 279.583 202.553 279.598 202.455 279.598C202.021 279.598 201.825 279.388 201.825 278.924V275.906H202.812V275.208H201.825V273.982H200.976ZM203.942 280.286H204.792V275.208H203.942V280.286ZM204.367 274.305C204.665 274.305 204.899 274.065 204.899 273.772C204.899 273.475 204.665 273.24 204.367 273.24C204.074 273.24 203.835 273.475 203.835 273.772C203.835 274.065 204.074 274.305 204.367 274.305ZM210.283 275.208H209.399L207.993 279.383H207.974L206.572 275.208H205.679L207.549 280.286H208.418L210.283 275.208ZM212.708 279.651C212.097 279.651 211.692 279.334 211.692 278.851C211.692 278.372 212.083 278.069 212.766 278.025L214.124 277.942V278.357C214.124 279.09 213.509 279.651 212.708 279.651ZM212.517 280.374C213.201 280.374 213.845 279.993 214.148 279.412H214.168V280.286H214.973V276.775C214.973 275.765 214.221 275.12 213.03 275.12C211.829 275.12 211.077 275.794 211.018 276.673H211.839C211.946 276.175 212.356 275.867 213.01 275.867C213.714 275.867 214.124 276.238 214.124 276.858V277.283L212.669 277.366C211.497 277.435 210.828 277.981 210.828 278.851C210.828 279.764 211.507 280.374 212.517 280.374ZM218.155 280.374C218.887 280.374 219.468 280.013 219.795 279.427H219.81V280.286H220.621V273.24H219.771V276.033H219.752C219.449 275.477 218.863 275.12 218.135 275.12C216.856 275.12 215.982 276.155 215.982 277.747C215.982 279.339 216.861 280.374 218.155 280.374ZM218.316 275.867C219.19 275.867 219.776 276.614 219.776 277.747C219.776 278.885 219.19 279.627 218.316 279.627C217.418 279.627 216.851 278.899 216.851 277.747C216.851 276.6 217.418 275.867 218.316 275.867ZM224.051 280.374C225.453 280.374 226.4 279.363 226.4 277.747C226.4 276.126 225.453 275.12 224.051 275.12C222.645 275.12 221.698 276.126 221.698 277.747C221.698 279.363 222.645 280.374 224.051 280.374ZM224.051 279.627C223.153 279.627 222.562 278.943 222.562 277.747C222.562 276.551 223.153 275.867 224.051 275.867C224.95 275.867 225.536 276.551 225.536 277.747C225.536 278.943 224.95 279.627 224.051 279.627ZM231.703 275.857C232.504 275.857 233.036 276.463 233.056 277.313H230.297C230.351 276.468 230.907 275.857 231.703 275.857ZM233.036 278.831C232.895 279.31 232.421 279.637 231.777 279.637C230.863 279.637 230.292 278.997 230.292 278.025V277.977H233.935V277.654C233.935 276.116 233.09 275.12 231.718 275.12C230.317 275.12 229.418 276.189 229.418 277.767C229.418 279.363 230.302 280.374 231.757 280.374C232.865 280.374 233.725 279.72 233.871 278.831H233.036ZM235.017 280.286H235.866V273.24H235.017V280.286ZM239.397 275.276H240.247C240.247 274.485 240.901 273.89 241.77 273.89C242.576 273.89 243.093 274.441 243.093 275.135C243.093 275.721 242.874 276.102 241.922 277.093L239.441 279.681V280.286H244.09V279.505H240.647V279.485L242.322 277.767C243.616 276.438 243.972 275.857 243.972 275.081C243.972 274.012 243.074 273.123 241.77 273.123C240.413 273.123 239.397 274.041 239.397 275.276ZM246.719 277.02H247.603C248.594 277.02 249.214 277.508 249.21 278.377C249.205 279.114 248.585 279.642 247.657 279.642C246.719 279.642 246.06 279.168 246.006 278.421H245.162C245.225 279.588 246.197 280.403 247.657 280.403C249.039 280.403 250.103 279.559 250.103 278.348C250.103 277.347 249.405 276.707 248.379 276.619V276.6C249.263 276.414 249.874 275.813 249.874 274.939C249.874 273.934 249.058 273.123 247.647 273.123C246.329 273.123 245.401 273.89 245.303 275.086H246.148C246.202 274.324 246.817 273.885 247.647 273.885C248.55 273.885 248.99 274.358 248.99 275.057C248.99 275.76 248.404 276.277 247.564 276.277H246.719V277.02ZM251.537 281.785L254.032 273.24H253.304L250.809 281.785H251.537ZM257.247 280.403C258.888 280.403 259.835 278.982 259.835 276.756C259.835 274.544 258.883 273.123 257.247 273.123C255.612 273.123 254.65 274.554 254.65 276.761C254.65 278.987 255.602 280.403 257.247 280.403ZM257.247 279.637C256.144 279.637 255.533 278.514 255.533 276.756C255.533 275.037 256.158 273.895 257.247 273.895C258.336 273.895 258.951 275.027 258.951 276.761C258.951 278.519 258.346 279.637 257.247 279.637ZM264.374 280.286H265.224V278.821H266.22V278.05H265.224V273.24H263.925C262.26 275.628 261.435 276.912 260.834 278.025V278.821H264.374V280.286ZM261.703 278.03C262.26 277.054 263.027 275.877 264.36 273.973H264.374V278.05H261.703V278.03ZM267.404 281.785L269.899 273.24H269.172L266.677 281.785H267.404ZM270.605 275.276H271.455C271.455 274.485 272.109 273.89 272.978 273.89C273.784 273.89 274.302 274.441 274.302 275.135C274.302 275.721 274.082 276.102 273.13 277.093L270.649 279.681V280.286H275.298V279.505H271.855V279.485L273.53 277.767C274.824 276.438 275.181 275.857 275.181 275.081C275.181 274.012 274.282 273.123 272.978 273.123C271.621 273.123 270.605 274.041 270.605 275.276ZM278.958 280.403C280.598 280.403 281.546 278.982 281.546 276.756C281.546 274.544 280.593 273.123 278.958 273.123C277.322 273.123 276.36 274.554 276.36 276.761C276.36 278.987 277.312 280.403 278.958 280.403ZM278.958 279.637C277.854 279.637 277.244 278.514 277.244 276.756C277.244 275.037 277.869 273.895 278.958 273.895C280.047 273.895 280.662 275.027 280.662 276.761C280.662 278.519 280.056 279.637 278.958 279.637ZM282.593 275.276H283.443C283.443 274.485 284.097 273.89 284.966 273.89C285.772 273.89 286.29 274.441 286.29 275.135C286.29 275.721 286.07 276.102 285.118 277.093L282.637 279.681V280.286H287.286V279.505H283.843V279.485L285.518 277.767C286.812 276.438 287.169 275.857 287.169 275.081C287.169 274.012 286.27 273.123 284.966 273.123C283.609 273.123 282.593 274.041 282.593 275.276ZM290.946 280.403C292.586 280.403 293.534 278.982 293.534 276.756C293.534 274.544 292.581 273.123 290.946 273.123C289.31 273.123 288.348 274.554 288.348 276.761C288.348 278.987 289.3 280.403 290.946 280.403ZM290.946 279.637C289.842 279.637 289.232 278.514 289.232 276.756C289.232 275.037 289.857 273.895 290.946 273.895C292.035 273.895 292.65 275.027 292.65 276.761C292.65 278.519 292.044 279.637 290.946 279.637Z" fill="#8D96A5"/>
<path d="M305.926 250.383V257.429H308.294C310.389 257.429 311.62 256.125 311.62 253.904C311.62 251.687 310.384 250.383 308.294 250.383H305.926ZM306.805 251.174H308.236C309.837 251.174 310.721 252.151 310.721 253.913C310.721 255.661 309.833 256.638 308.236 256.638H306.805V251.174ZM314.796 253C315.597 253 316.129 253.606 316.149 254.455H313.39C313.444 253.611 314 253 314.796 253ZM316.129 255.974C315.988 256.452 315.514 256.78 314.87 256.78C313.956 256.78 313.385 256.14 313.385 255.168V255.119H317.028V254.797C317.028 253.259 316.183 252.263 314.811 252.263C313.41 252.263 312.511 253.332 312.511 254.909C312.511 256.506 313.395 257.517 314.85 257.517C315.958 257.517 316.818 256.863 316.964 255.974H316.129ZM317.978 253.752C317.978 254.485 318.442 254.929 319.399 255.158L320.204 255.354C320.785 255.495 320.986 255.705 320.986 256.072C320.986 256.531 320.561 256.823 319.872 256.823C319.184 256.823 318.793 256.545 318.691 255.964H317.841C317.939 256.916 318.681 257.517 319.872 257.517C321.005 257.517 321.84 256.892 321.84 256.008C321.84 255.281 321.469 254.88 320.444 254.631L319.638 254.436C319.072 254.299 318.813 254.06 318.813 253.708C318.813 253.264 319.223 252.956 319.843 252.956C320.468 252.956 320.859 253.283 320.922 253.816H321.733C321.698 252.917 320.956 252.263 319.843 252.263C318.744 252.263 317.978 252.883 317.978 253.752ZM322.946 257.429H323.796V254.47C323.796 253.591 324.318 253.015 325.163 253.015C325.959 253.015 326.364 253.498 326.364 254.304V257.429H327.214V254.148C327.214 253.015 326.54 252.263 325.427 252.263C324.655 252.263 324.099 252.595 323.816 253.161H323.796V250.383H322.946V257.429ZM330.146 256.794C329.536 256.794 329.131 256.477 329.131 255.993C329.131 255.515 329.521 255.212 330.205 255.168L331.562 255.085V255.5C331.562 256.233 330.947 256.794 330.146 256.794ZM329.956 257.517C330.64 257.517 331.284 257.136 331.587 256.555H331.606V257.429H332.412V253.918C332.412 252.907 331.66 252.263 330.469 252.263C329.268 252.263 328.516 252.937 328.457 253.816H329.277C329.385 253.318 329.795 253.01 330.449 253.01C331.152 253.01 331.562 253.381 331.562 254.001V254.426L330.107 254.509C328.936 254.577 328.267 255.124 328.267 255.993C328.267 256.906 328.945 257.517 329.956 257.517ZM336.194 257.517C337.493 257.517 338.352 256.487 338.352 254.89C338.352 253.298 337.488 252.263 336.209 252.263C335.491 252.263 334.9 252.619 334.583 253.2H334.563V250.383H333.714V257.429H334.524V256.57H334.544C334.871 257.156 335.452 257.517 336.194 257.517ZM336.028 253.01C336.927 253.01 337.483 253.738 337.483 254.89C337.483 256.052 336.927 256.77 336.028 256.77C335.169 256.77 334.558 256.023 334.558 254.89C334.558 253.762 335.169 253.01 336.028 253.01ZM339.439 257.429H340.289V252.351H339.439V257.429ZM339.864 251.448C340.162 251.448 340.396 251.208 340.396 250.915C340.396 250.617 340.162 250.383 339.864 250.383C339.571 250.383 339.332 250.617 339.332 250.915C339.332 251.208 339.571 251.448 339.864 251.448ZM341.659 257.429H342.508V250.383H341.659V257.429ZM343.878 257.429H344.728V252.351H343.878V257.429ZM344.303 251.448C344.601 251.448 344.835 251.208 344.835 250.915C344.835 250.617 344.601 250.383 344.303 250.383C344.01 250.383 343.771 250.617 343.771 250.915C343.771 251.208 344.01 251.448 344.303 251.448ZM346.327 251.125V252.351H345.571V253.049H346.327V256.111C346.327 257.087 346.689 257.468 347.621 257.468C347.822 257.468 348.056 257.453 348.158 257.429V256.716C348.1 256.726 347.905 256.74 347.807 256.74C347.372 256.74 347.177 256.531 347.177 256.067V253.049H348.163V252.351H347.177V251.125H346.327ZM350.827 256.794C350.217 256.794 349.812 256.477 349.812 255.993C349.812 255.515 350.202 255.212 350.886 255.168L352.243 255.085V255.5C352.243 256.233 351.628 256.794 350.827 256.794ZM350.637 257.517C351.32 257.517 351.965 257.136 352.268 256.555H352.287V257.429H353.093V253.918C353.093 252.907 352.341 252.263 351.15 252.263C349.948 252.263 349.196 252.937 349.138 253.816H349.958C350.066 253.318 350.476 253.01 351.13 253.01C351.833 253.01 352.243 253.381 352.243 254.001V254.426L350.788 254.509C349.616 254.577 348.947 255.124 348.947 255.993C348.947 256.906 349.626 257.517 350.637 257.517ZM356.274 257.517C357.007 257.517 357.588 257.156 357.915 256.57H357.93V257.429H358.74V250.383H357.891V253.176H357.871C357.568 252.619 356.982 252.263 356.255 252.263C354.976 252.263 354.102 253.298 354.102 254.89C354.102 256.482 354.98 257.517 356.274 257.517ZM356.436 253.01C357.31 253.01 357.895 253.757 357.895 254.89C357.895 256.028 357.31 256.77 356.436 256.77C355.537 256.77 354.971 256.042 354.971 254.89C354.971 253.742 355.537 253.01 356.436 253.01ZM362.171 257.517C363.572 257.517 364.519 256.506 364.519 254.89C364.519 253.269 363.572 252.263 362.171 252.263C360.764 252.263 359.817 253.269 359.817 254.89C359.817 256.506 360.764 257.517 362.171 257.517ZM362.171 256.77C361.272 256.77 360.681 256.086 360.681 254.89C360.681 253.694 361.272 253.01 362.171 253.01C363.069 253.01 363.655 253.694 363.655 254.89C363.655 256.086 363.069 256.77 362.171 256.77Z" fill="#6B768A"/>
</g>
</g>
<rect x="117.725" y="3.72549" width="272.549" height="584.549" rx="29.5686" stroke="#33C88C" stroke-width="4.54902"/>
<path fill-rule="evenodd" clip-rule="evenodd" d="M72.5755 303C87.5614 303 100.473 311.906 106.335 324.727C116.319 342.655 132.737 372.269 134.97 376.836C138.023 383.081 141.075 390.918 141.808 395.326C141.849 395.573 141.863 395.817 141.853 396.058C143.022 401.176 143.639 406.506 143.639 411.979C143.639 451.203 111.932 483 72.8197 483C33.707 483 2 451.203 2 411.979C2 398.968 5.4893 386.773 11.5807 376.285C15.3615 368.697 20.2618 359.01 23.7343 352.592C25.7345 348.895 28.1887 344.284 30.697 339.572L30.6971 339.572L30.6973 339.572L30.6977 339.571L30.6979 339.571C34.4368 332.547 38.2958 325.298 40.9508 320.51L41.0036 320.639C47.5483 310.051 59.2407 303 72.5755 303ZM57.6789 327C57.6789 322.672 61.1875 319.163 65.5156 319.163H80.3679C84.696 319.163 88.2046 322.672 88.2046 327C88.2046 331.328 84.696 334.837 80.3679 334.837H65.5156C61.1875 334.837 57.6789 331.328 57.6789 327Z" fill="#33C88C"/>
<path d="M125.95 410.388C125.95 439.89 102.103 463.797 72.6976 463.797C43.2926 463.797 19.4452 439.89 19.4452 410.388C19.4452 380.885 43.2926 356.978 72.6976 356.978C102.103 356.978 125.95 380.885 125.95 410.388Z" fill="#33C88C" stroke="#249E6D" stroke-width="4.12042"/>
<path d="M36.6772 411.857C36.6772 431.942 52.9134 448.224 72.9418 448.224C76.9474 448.224 80.1947 444.968 80.1947 440.951C80.1947 436.934 76.9474 433.677 72.9418 433.677C60.9248 433.677 51.183 423.908 51.183 411.857C51.183 399.806 60.9248 390.037 72.9418 390.037C82.1889 390.037 90.0887 395.821 93.2392 403.979C93.3985 404.391 93.0876 404.826 92.6455 404.826H72.9418C68.9361 404.826 65.6889 408.082 65.6889 412.099C65.6889 416.116 68.9361 419.373 72.9418 419.373H101.953C105.959 419.373 109.206 416.116 109.206 412.099V411.857C109.206 391.772 92.9701 375.49 72.9418 375.49C52.9134 375.49 36.6772 391.772 36.6772 411.857Z" fill="white"/>
<defs>
<filter id="filter0_d_102_688" x="117.142" y="4.57143" width="273.714" height="75.7143" filterUnits="userSpaceOnUse" color-interpolation-filters="sRGB">
<feFlood flood-opacity="0" result="BackgroundImageFix"/>
<feColorMatrix in="SourceAlpha" type="matrix" values="0 0 0 0 0 0 0 0 0 0 0 0 0 0 0 0 0 0 127 0" result="hardAlpha"/>
<feOffset dy="1.42857"/>
<feGaussianBlur stdDeviation="1.42857"/>
<feComposite in2="hardAlpha" operator="out"/>
<feColorMatrix type="matrix" values="0 0 0 0 0 0 0 0 0 0 0 0 0 0 0 0 0 0 0.05 0"/>
<feBlend mode="normal" in2="BackgroundImageFix" result="effect1_dropShadow_102_688"/>
<feBlend mode="normal" in="SourceGraphic" in2="effect1_dropShadow_102_688" result="shape"/>
</filter>
<filter id="filter1_d_102_688" x="117.142" y="478.858" width="273.571" height="108.571" filterUnits="userSpaceOnUse" color-interpolation-filters="sRGB">
<feFlood flood-opacity="0" result="BackgroundImageFix"/>
<feColorMatrix in="SourceAlpha" type="matrix" values="0 0 0 0 0 0 0 0 0 0 0 0 0 0 0 0 0 0 127 0" result="hardAlpha"/>
<feOffset dy="-1.42857"/>
<feGaussianBlur stdDeviation="1.42857"/>
<feComposite in2="hardAlpha" operator="out"/>
<feColorMatrix type="matrix" values="0 0 0 0 0 0 0 0 0 0 0 0 0 0 0 0 0 0 0.05 0"/>
<feBlend mode="normal" in2="BackgroundImageFix" result="effect1_dropShadow_102_688"/>
<feBlend mode="normal" in="SourceGraphic" in2="effect1_dropShadow_102_688" result="shape"/>
</filter>
<filter id="filter2_d_102_688" x="125.718" y="93.1419" width="256.429" height="71.4308" filterUnits="userSpaceOnUse" color-interpolation-filters="sRGB">
<feFlood flood-opacity="0" result="BackgroundImageFix"/>
<feColorMatrix in="SourceAlpha" type="matrix" values="0 0 0 0 0 0 0 0 0 0 0 0 0 0 0 0 0 0 127 0" result="hardAlpha"/>
<feOffset/>
<feGaussianBlur stdDeviation="2.85714"/>
<feComposite in2="hardAlpha" operator="out"/>
<feColorMatrix type="matrix" values="0 0 0 0 0 0 0 0 0 0 0 0 0 0 0 0 0 0 0.1 0"/>
<feBlend mode="normal" in2="BackgroundImageFix" result="effect1_dropShadow_102_688"/>
<feBlend mode="normal" in="SourceGraphic" in2="effect1_dropShadow_102_688" result="shape"/>
</filter>
<filter id="filter3_d_102_688" x="125.718" y="161.713" width="256.429" height="71.4291" filterUnits="userSpaceOnUse" color-interpolation-filters="sRGB">
<feFlood flood-opacity="0" result="BackgroundImageFix"/>
<feColorMatrix in="SourceAlpha" type="matrix" values="0 0 0 0 0 0 0 0 0 0 0 0 0 0 0 0 0 0 127 0" result="hardAlpha"/>
<feOffset/>
<feGaussianBlur stdDeviation="2.85714"/>
<feComposite in2="hardAlpha" operator="out"/>
<feColorMatrix type="matrix" values="0 0 0 0 0 0 0 0 0 0 0 0 0 0 0 0 0 0 0.1 0"/>
<feBlend mode="normal" in2="BackgroundImageFix" result="effect1_dropShadow_102_688"/>
<feBlend mode="normal" in="SourceGraphic" in2="effect1_dropShadow_102_688" result="shape"/>
</filter>
<filter id="filter4_d_102_688" x="125.718" y="230.285" width="256.429" height="71.4288" filterUnits="userSpaceOnUse" color-interpolation-filters="sRGB">
<feFlood flood-opacity="0" result="BackgroundImageFix"/>
<feColorMatrix in="SourceAlpha" type="matrix" values="0 0 0 0 0 0 0 0 0 0 0 0 0 0 0 0 0 0 127 0" result="hardAlpha"/>
<feOffset/>
<feGaussianBlur stdDeviation="2.85714"/>
<feComposite in2="hardAlpha" operator="out"/>
<feColorMatrix type="matrix" values="0 0 0 0 0 0 0 0 0 0 0 0 0 0 0 0 0 0 0.1 0"/>
<feBlend mode="normal" in2="BackgroundImageFix" result="effect1_dropShadow_102_688"/>
<feBlend mode="normal" in="SourceGraphic" in2="effect1_dropShadow_102_688" result="shape"/>
</filter>
<clipPath id="clip0_102_688">
<rect x="120" y="6" width="268" height="580" rx="27.2941" fill="white"/>
</clipPath>
<clipPath id="clip1_102_688">
<rect width="268" height="70" fill="white" transform="translate(119.999 6)"/>
</clipPath>
<clipPath id="clip2_102_688">
<rect width="17.1429" height="17.1429" fill="white" transform="translate(191.004 546.001)"/>
</clipPath>
<clipPath id="clip3_102_688">
<rect width="22.8571" height="22.8571" fill="white" transform="translate(148.578 116.002)"/>
</clipPath>
<clipPath id="clip4_102_688">
<rect width="22.8571" height="22.8571" fill="white" transform="translate(148.578 184.572)"/>
</clipPath>
<clipPath id="clip5_102_688">
<rect width="22.8571" height="22.8571" fill="white" transform="translate(148.578 253.142)"/>
</clipPath>
</defs>
</svg>
