<svg width="378" height="512" viewBox="0 0 378 512" fill="none" xmlns="http://www.w3.org/2000/svg">
<g filter="url(#filter0_f_12749_62821)">
<path d="M317.958 286.367L275.823 123.465C266.305 84.4527 231.072 55.5 189.032 55.5C146.991 55.5 111.758 84.4527 102.24 123.465L60.0738 286.367C56.7963 297.967 55 310.196 55 322.833C55 396.646 115.004 456.5 189 456.5C262.996 456.5 323 396.646 323 322.833C323 310.196 321.235 297.967 317.958 286.367Z" fill="#33C88C" fill-opacity="0.4"/>
</g>
<g clip-path="url(#clip0_12749_62821)">
<path d="M304.523 283.644L266.78 137.481C258.254 102.478 226.693 76.5 189.034 76.5C151.375 76.5 119.814 102.478 111.289 137.481L73.5167 283.644C70.5808 294.052 68.9717 305.024 68.9717 316.363C68.9717 382.59 122.722 436.294 189.006 436.294C255.29 436.294 309.04 382.59 309.04 316.363C309.04 305.024 307.459 294.052 304.523 283.644ZM189.034 133.56C179.125 133.56 171.08 125.522 171.08 115.622C171.08 105.721 179.125 97.6826 189.034 97.6826C198.943 97.6826 206.988 105.721 206.988 115.622C206.988 125.522 198.943 133.56 189.034 133.56Z" fill="#221C35"/>
<path d="M119.165 308.013C119.165 346.571 150.444 377.823 189.034 377.823C192.733 377.823 196.29 376.356 198.915 373.733C201.54 371.11 203.008 367.556 203.008 363.861C203.008 360.166 201.54 356.612 198.915 353.989C196.29 351.366 192.733 349.899 189.034 349.899C181.412 349.899 173.903 347.812 167.382 343.863C160.861 339.914 155.525 334.273 151.968 327.532C148.411 320.791 146.774 313.203 147.197 305.588C147.621 297.972 150.162 290.61 154.481 284.321C158.8 278.031 164.757 273.038 171.701 269.879C178.646 266.72 186.324 265.507 193.918 266.41C201.512 267.284 208.711 270.218 214.724 274.9C220.765 279.582 225.395 285.787 228.161 292.895C228.218 293.093 228.246 293.29 228.218 293.459C228.218 293.657 228.133 293.826 228.02 293.995C227.907 294.164 227.766 294.277 227.597 294.362C227.427 294.446 227.23 294.503 227.032 294.503H189.063C185.364 294.503 181.808 295.97 179.182 298.593C176.557 301.216 175.089 304.77 175.089 308.465C175.089 312.16 176.557 315.714 179.182 318.337C181.808 320.96 185.364 322.427 189.063 322.427H244.958C248.656 322.427 252.213 320.96 254.839 318.337C257.464 315.714 258.932 312.16 258.932 308.465V307.985C258.932 269.428 227.653 238.176 189.063 238.176C150.472 238.176 119.193 269.428 119.193 307.985L119.165 308.013Z" fill="#33C88C"/>
</g>
<defs>
<filter id="filter0_f_12749_62821" x="0" y="0.5" width="378" height="511" filterUnits="userSpaceOnUse" color-interpolation-filters="sRGB">
<feFlood flood-opacity="0" result="BackgroundImageFix"/>
<feBlend mode="normal" in="SourceGraphic" in2="BackgroundImageFix" result="shape"/>
<feGaussianBlur stdDeviation="27.5" result="effect1_foregroundBlur_12749_62821"/>
</filter>
<clipPath id="clip0_12749_62821">
<rect width="240.068" height="359.794" fill="white" transform="translate(69 76.5)"/>
</clipPath>
</defs>
</svg>
