<svg width="119" height="27" viewBox="0 0 119 27" fill="none" xmlns="http://www.w3.org/2000/svg">
<g clip-path="url(#clip0_403_625)">
<path d="M37.6336 13.4996C36.5784 12.3311 35.875 10.9288 35.875 9.17603C35.875 5.78726 38.5716 3.09961 41.9716 3.09961H52.9922V6.72209H41.9716C40.6819 6.72209 39.5095 7.77378 39.5095 9.17603C39.5095 10.4614 40.5647 11.63 41.9716 11.63H49.2405V15.2525H41.9716C40.6819 15.2525 39.5095 16.3041 39.5095 17.7064C39.5095 18.9918 40.5647 20.1603 41.9716 20.1603H52.9922V23.7828H41.9716C38.5716 23.7828 35.875 21.0952 35.875 17.7064C35.875 16.1873 36.4612 14.6682 37.6336 13.4996ZM65.7716 12.9154C67.0612 12.9154 68.2336 13.9671 68.2336 15.3693V23.8997H71.8681V15.3693C71.8681 11.9805 69.1716 9.29289 65.7716 9.29289H55.9233V23.8997H59.5578V12.9154C59.5578 12.9154 65.7716 12.9154 65.7716 12.9154ZM108.213 22.1469C109.385 23.1986 111.027 23.8997 112.668 23.8997C116.068 23.8997 118.999 21.0952 118.999 17.7064V3.21646H115.365V17.7064C115.365 18.9918 114.075 20.2772 112.785 20.2772C111.496 20.2772 110.206 19.1087 110.206 17.7064V9.29289H106.454V17.7064C106.454 18.9918 105.165 20.2772 103.875 20.2772C102.585 20.2772 101.296 19.1087 101.296 17.7064V3.21646H97.6612V17.7064C97.6612 21.0952 100.592 23.8997 103.992 23.8997C105.516 23.8997 107.158 23.1986 108.213 22.1469ZM79.2543 6.83895H87.8129C89.1026 6.83895 90.275 7.89064 90.275 9.29289C90.275 10.5783 89.2198 11.7468 87.8129 11.7468H82.8888V15.3693H87.8129C89.1026 15.3693 90.275 16.421 90.275 17.8233C90.275 19.1087 89.2198 20.2772 87.8129 20.2772H75.5026V23.8997H87.6957C91.0957 23.8997 93.7922 21.212 93.7922 17.8233C93.7922 16.1873 93.0888 14.6682 92.0336 13.4996C93.0888 12.3311 93.7922 10.9288 93.7922 9.17603C93.7922 5.78726 91.0957 3.09961 87.6957 3.09961H75.5026V16.5379H79.1371L79.2543 6.83895Z" fill="#000099"/>
<path d="M30.131 15.1365V11.9814H1.52414C0.703448 11.9814 0 12.6826 0 13.5006C0 14.3185 0.703448 15.0197 1.52414 15.0197H30.131C30.131 15.0197 30.131 15.1365 30.131 15.1365Z" fill="#FF9900"/>
</g>
<defs>
<clipPath id="clip0_403_625">
<rect width="119" height="27" fill="white"/>
</clipPath>
</defs>
</svg>
