<svg width="125" height="30" viewBox="0 0 125 30" fill="none" xmlns="http://www.w3.org/2000/svg">
<g clip-path="url(#clip0_402_599)">
<path d="M39.1106 11.1073V12.5533H39.1529C39.4321 11.9691 39.9171 11.5087 40.5147 11.2608C41.1607 10.9865 41.8565 10.849 42.5583 10.8569C43.303 10.8388 44.0418 10.9937 44.7168 11.3093C45.3117 11.5992 45.8336 12.0196 46.244 12.5391C46.6596 13.0762 46.971 13.6866 47.1619 14.3385C47.3725 15.0351 47.4772 15.7595 47.4726 16.4873C47.4767 17.2143 47.3754 17.9381 47.172 18.6361C46.9893 19.2795 46.6807 19.8802 46.2642 20.4032C45.853 20.9117 45.3304 21.3187 44.737 21.5927C44.0647 21.8891 43.335 22.0325 42.6006 22.0127C42.3063 22.0094 42.0128 21.9817 41.7231 21.9299C41.3949 21.8726 41.0732 21.7826 40.7628 21.6613C40.4416 21.5347 40.1395 21.3641 39.8651 21.1544C39.5791 20.9372 39.3374 20.6671 39.1529 20.3587H39.1106V25.8559H37.3555V11.1073H39.1106ZM45.4169 14.8979C45.2938 14.4412 45.0888 14.0108 44.8117 13.6277C44.5417 13.2546 44.1878 12.9502 43.7788 12.7391C43.3209 12.5098 42.8139 12.3961 42.302 12.4079C41.8088 12.3871 41.3184 12.4931 40.8777 12.7158C40.437 12.9385 40.0606 13.2705 39.7844 13.6802C39.5162 14.0712 39.3233 14.5088 39.2155 14.9706C39.0987 15.4513 39.0398 15.9442 39.04 16.4388C39.0386 16.9509 39.1016 17.4612 39.2276 17.9575C39.3392 18.4212 39.5385 18.8593 39.8146 19.248C40.0876 19.6253 40.4447 19.9337 40.8576 20.1487C41.3382 20.3881 41.8703 20.5053 42.407 20.49C42.9347 20.5084 43.458 20.3872 43.924 20.1386C44.3213 19.9123 44.6577 19.5928 44.9045 19.2076C45.1604 18.8021 45.3421 18.3541 45.4411 17.8848C45.5514 17.3827 45.6069 16.8701 45.6065 16.356C45.6092 15.8643 45.5454 15.3745 45.4169 14.9V14.8979Z" fill="black"/>
<path d="M48.8759 14.2601C49.0809 13.6056 49.4188 13.0005 49.8685 12.4829C50.3183 11.9723 50.8748 11.5669 51.4985 11.2955C52.9326 10.7166 54.5349 10.7166 55.969 11.2955C56.586 11.5706 57.1364 11.9756 57.5829 12.4829C58.0312 13.0011 58.3684 13.606 58.5734 14.2601C58.7995 14.9718 58.9125 15.7146 58.9083 16.4614C58.9145 17.2047 58.8028 17.9443 58.5774 18.6526C58.3709 19.303 58.0339 19.9043 57.5869 20.4197C57.1416 20.9257 56.5907 21.3277 55.973 21.597C54.5364 22.1625 52.9392 22.1625 51.5025 21.597C50.8782 21.3313 50.3213 20.929 49.8725 20.4197C49.4242 19.9049 49.0863 19.3035 48.88 18.6526C48.6553 17.9442 48.5443 17.2046 48.5511 16.4614C48.5436 15.7151 48.6532 14.9723 48.8759 14.2601V14.2601ZM50.6633 18.1861C50.8117 18.6512 51.0541 19.0809 51.3755 19.4483C51.6696 19.7802 52.0324 20.0441 52.4386 20.2217C52.8453 20.4002 53.2846 20.4923 53.7287 20.4923C54.1728 20.4923 54.6121 20.4002 55.0188 20.2217C55.4255 20.0439 55.7889 19.78 56.084 19.4483C56.4046 19.0804 56.6469 18.6509 56.7961 18.1861C56.9765 17.6293 57.0637 17.0466 57.0543 16.4614C57.0623 15.8781 56.9744 15.2975 56.7941 14.7428C56.6426 14.2759 56.4006 13.8436 56.082 13.4705C55.789 13.1342 55.4262 12.8661 55.0188 12.6849C54.6119 12.5072 54.1727 12.4156 53.7287 12.4156C53.2848 12.4156 52.8456 12.5072 52.4386 12.6849C52.031 12.8655 51.668 13.1337 51.3755 13.4705C51.0561 13.8431 50.814 14.2756 50.6633 14.7428C50.4821 15.2993 50.3948 15.8822 50.4051 16.4674C50.3952 17.0507 50.4825 17.6315 50.6633 18.1861V18.1861Z" fill="black"/>
<path d="M68.7068 21.7927L66.5381 13.2986H66.4978L64.3533 21.7927H62.453L59.0234 11.1094H60.9641L63.385 19.8499H63.4253L65.5637 11.1074H67.4843L69.7034 19.8479H69.7457L72.1545 11.1074H73.9701L70.5648 21.7907L68.7068 21.7927Z" fill="black"/>
<path d="M82.2204 21.1124C81.4216 21.7182 80.4169 22.0212 79.2065 22.0212C78.4461 22.0384 77.6905 21.8975 76.9874 21.6072C76.3796 21.347 75.8394 20.9512 75.4078 20.45C74.9683 19.9305 74.6413 19.3253 74.4475 18.6728C74.2275 17.9417 74.106 17.1844 74.0864 16.421C74.0772 15.6604 74.2029 14.9041 74.4576 14.1874C74.6887 13.5405 75.0429 12.9445 75.5006 12.4325C75.9436 11.939 76.4852 11.5441 77.0903 11.2733C77.7262 10.9961 78.4141 10.8584 79.1076 10.8694C79.9347 10.838 80.7538 11.0417 81.47 11.457C82.0807 11.8339 82.5964 12.3467 82.9769 12.9555C83.3562 13.5644 83.6221 14.237 83.7617 14.9407C83.9032 15.6129 83.9622 16.3 83.9372 16.9865H75.9484C75.9317 17.4368 75.9876 17.8869 76.1139 18.3194C76.2338 18.7305 76.4402 19.1113 76.7191 19.4362C77.0071 19.7696 77.3663 20.0339 77.7701 20.2097C78.246 20.413 78.7598 20.5121 79.2771 20.5005C79.924 20.5237 80.5615 20.3398 81.0968 19.9754C81.5977 19.5898 81.9337 19.0283 82.0368 18.4042H83.7698C83.5344 19.5984 83.018 20.5011 82.2204 21.1124ZM81.7968 14.246C81.567 13.6949 81.1777 13.2252 80.6791 12.8973C80.1804 12.5694 79.5952 12.3984 78.9987 12.4062C78.5778 12.4003 78.1602 12.4814 77.7721 12.6445C77.418 12.7953 77.0982 13.0165 76.832 13.2948C76.568 13.5741 76.358 13.9001 76.2127 14.2561C76.0604 14.628 75.9697 15.0223 75.9444 15.4234H82.0752C82.0483 15.0195 81.9542 14.6229 81.7968 14.25V14.246Z" fill="black"/>
<path d="M86.9274 11.1073V13.361H86.9678C87.3123 12.5928 87.8538 11.9295 88.5373 11.4385C89.1573 11.0265 89.942 10.8339 90.8915 10.8609V12.7229C90.2798 12.7081 89.6705 12.806 89.0941 13.0117C88.6277 13.1841 88.215 13.4767 87.8978 13.8599C87.5821 14.2575 87.357 14.7192 87.2381 15.2129C87.0934 15.8118 87.0256 16.4266 87.0364 17.0426V21.7946H85.2812V11.1073H86.9274Z" fill="black"/>
<path d="M105.325 21.7928V20.3468H105.283C105.005 20.9291 104.519 21.386 103.921 21.6272C103.272 21.8927 102.576 22.0239 101.875 22.0129C101.13 22.0297 100.391 21.8735 99.7168 21.5565C99.1244 21.2708 98.6028 20.857 98.1897 20.3448C97.7743 19.8158 97.4628 19.2127 97.2718 18.5676C97.0611 17.8703 96.9564 17.1453 96.9611 16.4168C96.9571 15.6898 97.0583 14.966 97.2617 14.268C97.4444 13.6246 97.7529 13.024 98.1695 12.501C98.5838 11.9943 99.1063 11.5871 99.6986 11.3094C100.368 11.0009 101.098 10.849 101.835 10.8651C102.133 10.8668 102.43 10.8938 102.723 10.9459C103.049 11.0048 103.367 11.099 103.673 11.2266C103.993 11.3597 104.295 11.5334 104.571 11.7436C104.856 11.9602 105.098 12.2296 105.283 12.5373H105.325V7.03613H107.08V21.7928H105.325ZM99.0168 18.0001C99.1407 18.4571 99.3457 18.888 99.622 19.2724C99.8925 19.645 100.246 19.9493 100.655 20.161C101.113 20.3896 101.62 20.5026 102.132 20.4902C102.625 20.5108 103.115 20.4049 103.555 20.1826C103.996 19.9603 104.373 19.6289 104.649 19.2199C104.916 18.8274 105.108 18.3893 105.216 17.9274C105.333 17.4475 105.392 16.9552 105.392 16.4612C105.394 15.9492 105.331 15.439 105.206 14.9426C105.094 14.4782 104.895 14.0395 104.619 13.6501C104.345 13.2743 103.988 12.9668 103.576 12.7514C103.096 12.5112 102.563 12.394 102.027 12.4101C101.502 12.3945 100.983 12.5156 100.52 12.7615C100.118 12.9861 99.7784 13.3058 99.5292 13.6925C99.2738 14.0976 99.0921 14.5447 98.9926 15.0132C98.8814 15.5159 98.8259 16.0292 98.8271 16.544C98.8254 17.0357 98.8891 17.5254 99.0168 18.0001V18.0001Z" fill="#00A2C6"/>
<path d="M109.038 14.2601C109.242 13.6055 109.579 13.0003 110.029 12.4829C110.479 11.9728 111.035 11.5675 111.659 11.2955C113.093 10.7166 114.695 10.7166 116.129 11.2955C116.747 11.57 117.297 11.9751 117.743 12.4829C118.192 13.0008 118.529 13.6058 118.734 14.2601C118.958 14.972 119.07 15.7148 119.065 16.4614C119.071 17.2047 118.959 17.9443 118.734 18.6526C118.528 19.3026 118.19 19.9033 117.743 20.4176C117.299 20.9254 116.748 21.3282 116.129 21.597C114.693 22.1625 113.095 22.1625 111.659 21.597C111.034 21.3307 110.477 20.9277 110.029 20.4176C109.581 19.9038 109.243 19.3029 109.038 18.6526C108.812 17.9445 108.7 17.2048 108.707 16.4614C108.701 15.7147 108.812 14.9718 109.038 14.2601V14.2601ZM110.824 18.1861C110.974 18.6504 111.216 19.0797 111.536 19.4483C111.83 19.7798 112.193 20.0436 112.599 20.2217C113.006 20.3994 113.445 20.4911 113.889 20.4911C114.333 20.4911 114.772 20.3994 115.179 20.2217C115.585 20.0436 115.948 19.7798 116.242 19.4483C116.562 19.0797 116.804 18.6504 116.954 18.1861C117.134 17.6292 117.22 17.0465 117.211 16.4614C117.22 15.8783 117.133 15.2978 116.954 14.7428C116.803 14.2765 116.561 13.8448 116.242 13.4725C115.949 13.1362 115.586 12.8681 115.179 12.6869C114.772 12.5093 114.333 12.4176 113.889 12.4176C113.445 12.4176 113.006 12.5093 112.599 12.6869C112.192 12.8681 111.829 13.1362 111.536 13.4725C111.217 13.8448 110.975 14.2765 110.824 14.7428C110.642 15.3 110.555 15.8835 110.565 16.4695C110.556 17.052 110.643 17.6321 110.824 18.1861V18.1861Z" fill="#00A2C6"/>
<path d="M125 11.1073V12.6583H122.873V19.2924C122.869 19.4588 122.886 19.6251 122.924 19.7872C122.955 19.9048 123.026 20.0077 123.125 20.078C123.247 20.1557 123.385 20.2015 123.529 20.2113C123.752 20.2339 123.976 20.244 124.201 20.2416H125.008V21.7926H123.664C123.273 21.7981 122.883 21.767 122.498 21.6997C122.212 21.6542 121.942 21.5367 121.713 21.3584C121.5 21.1726 121.346 20.9282 121.269 20.6556C121.161 20.2659 121.112 19.8622 121.124 19.458V12.6583H119.309V11.1073H121.124V7.9043H122.879V11.1073H125Z" fill="#00A2C6"/>
<path d="M14.95 0H12.4102V7.54897H14.95V0Z" fill="black"/>
<path d="M9.80264 29.4625C7.70919 28.8793 5.79016 27.792 4.21302 26.2956C2.63588 24.7991 1.44859 22.939 0.754752 20.8775C-1.64793 13.686 1.90062 6.4218 8.35417 3.69141L9.23374 5.77353C3.80299 8.07781 0.835447 14.2192 2.93956 20.2717C3.5329 21.9594 4.52472 23.4786 5.83063 24.7001C7.13654 25.9217 8.71789 26.8093 10.4401 27.2875C18.1182 29.4201 25.0963 23.6524 25.0963 16.3074C25.0991 14.0592 24.4387 11.8603 23.198 9.98634C21.9574 8.11239 20.1916 6.64686 18.1223 5.77353L19.0018 3.69141C21.4806 4.73706 23.5957 6.49216 25.0818 8.73655C26.568 10.9809 27.359 13.6147 27.3557 16.3074C27.3557 25.1185 18.9998 32.0112 9.80264 29.4625Z" fill="black"/>
<path d="M13.6762 20.6434C15.9524 20.6434 17.7976 18.7961 17.7976 16.5175C17.7976 14.2388 15.9524 12.3916 13.6762 12.3916C11.3999 12.3916 9.55469 14.2388 9.55469 16.5175C9.55469 18.7961 11.3999 20.6434 13.6762 20.6434Z" fill="#00A2C6"/>
</g>
<defs>
<clipPath id="clip0_402_599">
<rect width="125" height="30" fill="white"/>
</clipPath>
</defs>
</svg>
