<svg width="318" height="286" viewBox="0 0 318 286" fill="none" xmlns="http://www.w3.org/2000/svg">
<g clip-path="url(#clip0_24_301)">
<path opacity="0.95" d="M219.044 125.781L219.052 125.79L219.059 125.798C223.484 130.501 227.347 135.877 230.477 141.883C248.75 176.957 235.147 220.206 200.1 238.465C165.053 256.725 121.814 243.092 103.54 208.018C100.412 202.013 98.2347 195.759 96.9149 189.436L96.9126 189.425L96.91 189.414L76.2587 100.334L76.2571 100.327L76.2554 100.32C71.142 79.5834 80.5957 57.294 100.362 46.9955C120.129 36.697 143.813 41.7213 157.877 57.794L157.882 57.7993L157.887 57.8046L219.044 125.781Z" stroke="#221C35" stroke-width="2.06762"/>
<path opacity="0.85" d="M229.992 122.979L230 122.988L230.008 122.996C235.137 128.441 239.614 134.666 243.239 141.623C264.404 182.248 248.567 232.387 207.867 253.592C167.166 274.798 117 259.046 95.8339 218.422C92.2103 211.467 89.6914 204.221 88.1673 196.896L88.1649 196.885L88.1624 196.873L64.3469 93.8611L64.3453 93.854L64.3436 93.847C58.4282 69.7988 69.4362 43.9284 92.4152 31.9562C115.394 19.9839 142.904 25.7864 159.223 44.4142L159.228 44.4196L159.233 44.4249L229.992 122.979Z" stroke="#221C35" stroke-width="2.06762"/>
<path opacity="0.75" d="M240.704 120.228L240.712 120.237L240.72 120.245C246.534 126.414 251.609 133.466 255.716 141.348C279.698 187.378 261.703 244.217 215.522 268.278C169.341 292.339 112.447 274.516 88.4654 228.487C84.3596 220.606 81.507 212.396 79.7829 204.094L79.7806 204.083L79.7781 204.072L52.8685 87.5008L52.8669 87.4938L52.8651 87.4868C46.1659 60.2147 58.677 30.8636 84.77 17.269C110.863 3.67436 142.087 10.2394 160.599 31.3569L160.603 31.3623L160.608 31.3676L240.704 120.228Z" stroke="#221C35" stroke-width="2.06762"/>
<path opacity="0.5" d="M251.413 117.478L251.421 117.486L251.428 117.494C257.928 124.386 263.6 132.266 268.189 141.074C294.987 192.509 274.835 256.048 223.173 282.964C171.511 309.88 107.891 289.987 81.093 238.552C76.5049 229.746 73.3188 220.571 71.3947 211.293L71.3924 211.282L71.3898 211.271L41.3862 81.141L41.3845 81.134L41.3828 81.1269C33.8995 50.6309 47.914 17.7993 77.1209 2.58233C106.328 -12.6346 141.265 -5.30736 161.97 18.3001L161.975 18.3055L161.98 18.3108L251.413 117.478Z" stroke="#221C35" stroke-width="2.06762"/>
<path opacity="0.25" d="M262.121 114.727L262.129 114.735L262.137 114.744C269.322 122.358 275.591 131.066 280.662 140.799C310.276 197.64 287.966 267.878 230.824 297.65C173.682 327.421 103.335 305.458 73.7205 248.617C68.6503 238.885 65.1305 228.745 63.0065 218.492L63.0041 218.481L63.0016 218.469L29.9038 74.7809L29.9022 74.7739L29.9004 74.7668C21.6332 41.0466 37.1512 4.73464 69.4718 -12.1046C101.792 -28.9438 140.444 -20.8544 163.342 5.24303L163.347 5.24841L163.351 5.25372L262.121 114.727Z" stroke="#221C35" stroke-width="2.06762"/>
<g clip-path="url(#clip1_24_301)">
<path d="M209.077 128.269L157.301 70.7647C145.136 56.8717 124.636 52.5377 107.516 61.4569C90.3971 70.3761 82.2024 89.6603 86.6171 107.592L104.064 182.981C105.195 188.408 107.062 193.777 109.747 198.931C125.433 229.037 162.586 240.72 192.718 225.021C222.85 209.322 234.565 172.179 218.879 142.073C216.194 136.918 212.876 132.305 209.077 128.269ZM121.031 87.3959C116.526 89.7427 110.965 87.9939 108.62 83.4934C106.275 78.9929 108.029 73.4331 112.533 71.0863C117.038 68.7394 122.599 70.4882 124.944 74.9887C127.289 79.4892 125.535 85.0491 121.031 87.3959Z" fill="#221C35"/>
<path d="M130.584 183.248C139.716 200.776 161.336 207.574 178.879 198.435C180.56 197.559 181.83 196.049 182.402 194.235C182.974 192.421 182.8 190.458 181.925 188.778C181.05 187.098 179.541 185.83 177.726 185.26C175.911 184.689 173.947 184.865 172.266 185.741C168.801 187.546 164.893 188.376 160.993 188.125C157.093 187.874 153.332 186.574 150.118 184.352C146.905 182.13 144.363 179.068 142.752 175.506C141.141 171.944 140.552 167.996 141.026 164.113C141.5 160.231 143.025 156.551 145.434 153.47C147.843 150.389 151.046 148.019 154.712 146.631C158.371 145.23 162.338 144.858 166.181 145.563C170.036 146.26 173.61 147.985 176.551 150.561C176.624 150.637 176.683 150.72 176.71 150.804C176.757 150.893 176.759 150.99 176.748 151.094C176.736 151.198 176.699 151.282 176.642 151.361C176.585 151.44 176.508 151.512 176.419 151.559L159.158 160.552C157.477 161.427 156.207 162.937 155.635 164.751C155.063 166.565 155.238 168.528 156.113 170.208C156.988 171.888 158.497 173.156 160.312 173.726C162.126 174.297 164.091 174.121 165.772 173.245L191.181 160.007C192.862 159.131 194.132 157.622 194.704 155.808C195.276 153.993 195.102 152.03 194.227 150.35L194.113 150.132C184.981 132.605 163.36 125.806 145.818 134.946C128.275 144.086 121.458 165.701 130.59 183.229L130.584 183.248Z" fill="#33C88C"/>
</g>
</g>
<defs>
<clipPath id="clip0_24_301">
<rect width="318" height="286" fill="white"/>
</clipPath>
<clipPath id="clip1_24_301">
<rect width="123.056" height="184.425" fill="white" transform="translate(52.9531 89.8862) rotate(-27.5198)"/>
</clipPath>
</defs>
</svg>
