<svg width="697" height="413" viewBox="0 0 697 413" fill="none" xmlns="http://www.w3.org/2000/svg">
<g clip-path="url(#clip0_3063_72)">
<path d="M22.6801 -91.53L46.0102 -91.53C-58.5899 -5.43998 -150.13 96.5601 -212.39 175.78L-212.39 156.1C-153.76 83.06 -71.1699 -8.96998 22.6801 -91.53Z" stroke="#33C88C" stroke-width="1.23"/>
<path d="M-17.9399 -91.53L1.61013 -91.53C-82.7299 -13.53 -157.33 69.54 -212.39 136.82L-212.39 117.9C-160.99 56.1001 -93.6699 -18.79 -17.9399 -91.53Z" stroke="#33C88C" stroke-width="1.23"/>
<path d="M1.61013 -91.53L22.7101 -91.53C-71.1399 -8.96998 -153.73 83.06 -212.36 156.1L-212.36 136.82C-157.39 69.54 -82.7599 -13.54 1.61013 -91.53Z" stroke="#33C88C" stroke-width="1.23"/>
<path d="M211.61 -91.53L354.61 -91.53C319.23 -81.92 285.81 -74.53 255.18 -70.02C45.0601 -34.52 -128.87 156.28 -212.42 281.76L-212.42 259.33C-130.76 142.07 26.5201 -30.38 211.61 -91.53Z" stroke="#33C88C" stroke-width="1.23"/>
<path d="M46.0102 -91.53L72.6101 -91.53C-44.5299 -3.52998 -146.39 109.89 -212.39 195.89L-212.39 175.78C-150.13 96.5601 -58.5898 -5.43998 46.0102 -91.53Z" stroke="#33C88C" stroke-width="1.23"/>
<path d="M241.99 -33.3799C304.39 -41.1999 378.84 -62.38 458.24 -91.56L535.83 -91.56C422.51 -41.98 314.01 -5.21994 228.83 3.49005C15.6701 28.38 -142.24 210.62 -212.39 329.31L-212.39 305.02C-135.39 183.03 30.6701 -3.10996 241.99 -33.3799Z" stroke="#33C88C" stroke-width="1.23"/>
<path d="M202.88 77.19C226.41 74.57 250 72.12 273.27 67.19C388.27 42.96 500.35 -9.61987 602.6 -66.3499C631.08 -82.1499 662.93 -99.4399 694.48 -91.3499C614.85 -44.7899 535.05 1.86009 451 39.8601C399.17 63.2901 344.28 84.06 288.53 98.33C259.849 105.731 230.727 111.306 201.34 115.02C172.34 118.62 142.88 118.49 114.23 124.78C83.5004 131.537 53.6602 141.843 25.3101 155.49C-70.8099 201.72 -147.56 284.38 -196.39 378.35C-202.15 389.423 -207.483 400.7 -212.39 412.18L-212.39 382.27C-212.39 374.91 -201.58 361.27 -197.97 354.89C-192.17 344.59 -186.073 334.47 -179.68 324.53C-165.494 302.453 -149.954 281.276 -133.15 261.12C-95.3199 215.74 -50.9999 175.43 -0.779884 144.12C43.7501 116.38 92.8501 96.12 144.31 85.57C163.67 81.62 183.26 79.37 202.88 77.19Z" stroke="#33C88C" stroke-width="1.23"/>
<path d="M215.86 40.62C318.97 32.4401 457.7 -21.5099 598.27 -91.5099L650.27 -91.5099C487.35 -1.37994 320.94 71.2601 202.95 77.9101C-17.1398 91.4901 -157.24 269.7 -212.4 382.32L-212.4 354.92C-149.47 239.38 -0.129839 59.93 215.86 40.62Z" stroke="#33C88C" stroke-width="1.23"/>
<path d="M255.21 -70.02C285.84 -74.57 319.21 -81.92 354.64 -91.53L458.24 -91.53C378.84 -62.37 304.39 -41.1699 241.99 -33.3499C30.6701 -3.10995 -135.39 183.03 -212.39 305.02L-212.39 281.76C-128.84 156.28 45.0901 -34.52 255.21 -70.02Z" stroke="#33C88C" stroke-width="1.23"/>
<path d="M228.87 3.52008C314.01 -5.18991 422.51 -41.95 535.87 -91.5299L598.27 -91.5299C457.7 -21.53 318.97 32.47 215.86 40.6C-0.139836 59.93 -149.47 239.38 -212.39 354.92L-212.39 329.31C-142.24 210.62 15.6702 28.3801 228.87 3.52008Z" stroke="#33C88C" stroke-width="1.23"/>
<path d="M72.6101 -91.53L104.61 -91.53C-27.9099 -4.45998 -142.39 122.71 -212.39 216.47L-212.39 195.88C-146.39 109.89 -44.4999 -3.55998 72.6101 -91.53Z" stroke="#33C88C" stroke-width="1.23"/>
<path d="M104.61 -91.53L146.14 -91.53C-6.75984 -10.63 -137.73 134.29 -212.39 237.6L-212.39 216.48C-142.39 122.71 -27.9499 -4.45998 104.61 -91.53Z" stroke="#33C88C" stroke-width="1.23"/>
<path d="M146.14 -91.53L211.61 -91.53C26.5201 -30.38 -130.76 142.07 -212.39 259.33L-212.39 237.62C-137.73 134.29 -6.75983 -10.63 146.14 -91.53Z" stroke="#33C88C" stroke-width="1.23"/>
</g>
<defs>
<clipPath id="clip0_3063_72">
<rect width="909.09" height="506.45" fill="white" transform="translate(696.09 412.45) rotate(-180)"/>
</clipPath>
</defs>
</svg>
