<svg width="748" height="473" viewBox="0 0 748 473" fill="none" xmlns="http://www.w3.org/2000/svg">
<g clip-path="url(#clip0_3063_181)">
<path d="M732.4 503.98C800.18 436.93 860.76 369.64 908.48 313.12V331.38C864.48 382.76 810.25 442.9 749.9 503.98H732.4Z" stroke="#33C88C" stroke-width="1.23"/>
<path d="M673.41 503.98H650.08C754.68 417.89 846.22 315.89 908.48 236.67V256.35C849.85 329.39 767.26 421.42 673.41 503.98Z" stroke="#33C88C" stroke-width="1.23"/>
<path d="M714.03 503.98H694.48C778.82 425.98 853.42 342.91 908.48 275.63V294.55C857.08 356.35 789.76 431.24 714.03 503.98Z" stroke="#33C88C" stroke-width="1.23"/>
<path d="M694.48 503.98H673.38C767.23 421.42 849.82 329.39 908.45 256.35V275.63C853.48 342.91 778.85 425.99 694.48 503.98Z" stroke="#33C88C" stroke-width="1.23"/>
<path d="M732.4 503.98H714.03C789.76 431.24 857.03 356.35 908.48 294.55V313.12C860.76 369.64 800.18 436.93 732.4 503.98Z" stroke="#33C88C" stroke-width="1.23"/>
<path d="M484.48 503.98H341.48C376.86 494.37 410.28 486.98 440.91 482.47C651.03 446.97 824.96 256.17 908.51 130.69V153.12C826.85 270.38 669.57 442.83 484.48 503.98Z" stroke="#33C88C" stroke-width="1.23"/>
<path d="M650.08 503.98H623.48C740.62 415.98 842.48 302.56 908.48 216.56V236.67C846.22 315.89 754.68 417.89 650.08 503.98Z" stroke="#33C88C" stroke-width="1.23"/>
<path d="M454.1 445.83C391.7 453.65 317.25 474.83 237.85 504.01H160.26C273.58 454.43 382.08 417.67 467.26 408.96C680.42 384.07 838.33 201.83 908.48 83.14V107.43C831.48 229.42 665.42 415.56 454.1 445.83Z" stroke="#33C88C" stroke-width="1.23"/>
<path d="M493.21 335.26C469.68 337.88 446.09 340.33 422.82 345.26C307.82 369.49 195.74 422.07 93.49 478.8C65.01 494.6 33.16 511.89 1.60999 503.8C81.24 457.24 161.04 410.59 245.09 372.59C296.92 349.16 351.81 328.39 407.56 314.12C436.241 306.719 465.363 301.144 494.75 297.43C523.75 293.83 553.21 293.96 581.86 287.67C612.59 280.913 642.43 270.607 670.78 256.96C766.9 210.73 843.65 128.07 892.48 34.1C898.24 23.0267 903.573 11.75 908.48 0.270004V30.18C908.48 37.54 897.67 51.18 894.06 57.56C888.26 67.86 882.163 77.98 875.77 87.92C861.584 109.997 846.045 131.174 829.24 151.33C791.41 196.71 747.09 237.02 696.87 268.33C652.34 296.07 603.24 316.33 551.78 326.88C532.42 330.83 512.83 333.08 493.21 335.26Z" stroke="#33C88C" stroke-width="1.23"/>
<path d="M480.23 371.83C377.12 380.01 238.39 433.96 97.8199 503.96H45.8199C208.74 413.83 375.15 341.19 493.14 334.54C713.23 320.96 853.33 142.75 908.49 30.13V57.53C845.56 173.07 696.22 352.52 480.23 371.83Z" stroke="#33C88C" stroke-width="1.23"/>
<path d="M440.88 482.47C410.25 487.02 376.88 494.37 341.45 503.98H237.85C317.25 474.82 391.7 453.62 454.1 445.8C665.42 415.56 831.48 229.42 908.48 107.43V130.69C824.93 256.17 651 446.97 440.88 482.47Z" stroke="#33C88C" stroke-width="1.23"/>
<path d="M467.22 408.93C382.08 417.64 273.58 454.4 160.22 503.98H97.8199C238.39 433.98 377.12 379.98 480.23 371.85C696.23 352.52 845.56 173.07 908.48 57.53V83.14C838.33 201.83 680.42 384.07 467.22 408.93Z" stroke="#33C88C" stroke-width="1.23"/>
<path d="M623.48 503.98H591.48C724 416.91 838.48 289.74 908.48 195.98V216.57C842.48 302.56 740.59 416.01 623.48 503.98Z" stroke="#33C88C" stroke-width="1.23"/>
<path d="M591.48 503.98H549.95C702.85 423.08 833.82 278.16 908.48 174.85V195.97C838.48 289.74 724.04 416.91 591.48 503.98Z" stroke="#33C88C" stroke-width="1.23"/>
<path d="M549.95 503.98H484.48C669.57 442.83 826.85 270.38 908.48 153.12V174.83C833.82 278.16 702.85 423.08 549.95 503.98Z" stroke="#33C88C" stroke-width="1.23"/>
</g>
<defs>
<clipPath id="clip0_3063_181">
<rect width="909.09" height="506.45" fill="white"/>
</clipPath>
</defs>
</svg>
