<svg width="28" height="29" viewBox="0 0 28 29" fill="none" xmlns="http://www.w3.org/2000/svg">
<path d="M24.5001 23.724C24.5001 24.3685 23.978 24.8906 23.3334 24.8906H4.66673C4.02214 24.8906 3.50006 24.3685 3.50006 23.724V5.05729C3.50006 4.41271 4.02214 3.89062 4.66673 3.89062H23.3334C23.978 3.89062 24.5001 4.41271 24.5001 5.05729V23.724Z" fill="url(#paint0_linear_2_2)"/>
<path opacity="0.05" d="M14.5833 22.5583V16.1416H12.25V12.6416H14.5833V11.3945C14.5833 8.45332 16.1385 6.83398 18.9612 6.83398C20.125 6.83398 20.7562 6.91565 21.0601 6.95532L21.5606 7.02007L21.5833 7.52232V10.3083H19.4629C18.8049 10.3083 18.6667 11.1122 18.6667 11.7871V12.6416H21.4217L20.8804 16.1416H18.6667V22.5583H14.5833Z" fill="white"/>
<path opacity="0.07" d="M14.875 22.266V15.8493H12.5417V12.9327H14.875V11.3938C14.875 8.60083 16.2879 7.125 18.9613 7.125C20.111 7.125 20.7288 7.2055 21.0263 7.244L21.2806 7.27725L21.2923 7.53508V10.016H19.4635C18.5168 10.016 18.3756 11.1249 18.3756 11.7864V12.9327H21.0823L20.6314 15.8493H18.375V22.266H14.875Z" fill="white"/>
<path d="M19.4629 9.72426H21V7.53443C20.713 7.4971 20.1069 7.41602 18.9612 7.41602C16.569 7.41602 15.1666 8.62935 15.1666 11.3938V13.2243H12.8333V15.5576H15.1666V21.9743H18.0833V15.5576H20.3805L20.741 13.2243H18.0833V11.7863C18.0833 10.6932 18.4403 9.72426 19.4629 9.72426Z" fill="white"/>
<defs>
<linearGradient id="paint0_linear_2_2" x1="3.63306" y1="3.24662" x2="24.545" y2="25.726" gradientUnits="userSpaceOnUse">
<stop stop-color="#0D61A9"/>
<stop offset="1" stop-color="#16528C"/>
</linearGradient>
</defs>
</svg>
