<svg width="28" height="28" viewBox="0 0 28 28" fill="none" xmlns="http://www.w3.org/2000/svg">
<path d="M19.8433 24.4941L8.17662 24.5052C5.60995 24.5076 3.5082 22.4099 3.50529 19.8432L3.4942 8.17656C3.49187 5.60989 5.58954 3.50814 8.1562 3.50523L19.8229 3.49414C22.3895 3.49181 24.4913 5.58948 24.4942 8.15614L24.5053 19.8228C24.5082 22.3901 22.41 24.4918 19.8433 24.4941Z" fill="url(#paint0_radial_2_7)"/>
<path d="M19.8433 24.4941L8.17662 24.5052C5.60995 24.5076 3.5082 22.4099 3.50529 19.8432L3.4942 8.17656C3.49187 5.60989 5.58954 3.50814 8.1562 3.50523L19.8229 3.49414C22.3895 3.49181 24.4913 5.58948 24.4942 8.15614L24.5053 19.8228C24.5082 22.3901 22.41 24.4918 19.8433 24.4941Z" fill="url(#paint1_radial_2_7)"/>
<path d="M14 18.0827C11.7489 18.0827 9.91669 16.251 9.91669 13.9994C9.91669 11.7477 11.7489 9.91602 14 9.91602C16.2511 9.91602 18.0834 11.7477 18.0834 13.9994C18.0834 16.251 16.2511 18.0827 14 18.0827ZM14 11.0827C12.3918 11.0827 11.0834 12.3911 11.0834 13.9994C11.0834 15.6076 12.3918 16.916 14 16.916C15.6083 16.916 16.9167 15.6076 16.9167 13.9994C16.9167 12.3911 15.6083 11.0827 14 11.0827Z" fill="white"/>
<path d="M18.375 10.5C18.8582 10.5 19.25 10.1082 19.25 9.625C19.25 9.14175 18.8582 8.75 18.375 8.75C17.8918 8.75 17.5 9.14175 17.5 9.625C17.5 10.1082 17.8918 10.5 18.375 10.5Z" fill="white"/>
<path d="M17.5 21.5827H10.5C8.24894 21.5827 6.41669 19.751 6.41669 17.4994V10.4993C6.41669 8.24768 8.24894 6.41602 10.5 6.41602H17.5C19.7511 6.41602 21.5834 8.24768 21.5834 10.4993V17.4994C21.5834 19.751 19.7511 21.5827 17.5 21.5827ZM10.5 7.58268C8.89177 7.58268 7.58335 8.8911 7.58335 10.4993V17.4994C7.58335 19.1076 8.89177 20.416 10.5 20.416H17.5C19.1083 20.416 20.4167 19.1076 20.4167 17.4994V10.4993C20.4167 8.8911 19.1083 7.58268 17.5 7.58268H10.5Z" fill="white"/>
<defs>
<radialGradient id="paint0_radial_2_7" cx="0" cy="0" r="1" gradientUnits="userSpaceOnUse" gradientTransform="translate(11.305 24.5204) scale(26.1911)">
<stop stop-color="#FFDD55"/>
<stop offset="0.328" stop-color="#FF543F"/>
<stop offset="0.348" stop-color="#FC5245"/>
<stop offset="0.504" stop-color="#E64771"/>
<stop offset="0.643" stop-color="#D53E91"/>
<stop offset="0.761" stop-color="#CC39A4"/>
<stop offset="0.841" stop-color="#C837AB"/>
</radialGradient>
<radialGradient id="paint1_radial_2_7" cx="0" cy="0" r="1" gradientUnits="userSpaceOnUse" gradientTransform="translate(6.8752 3.23182) scale(17.3909 11.5876)">
<stop stop-color="#4168C9"/>
<stop offset="0.999" stop-color="#4168C9" stop-opacity="0"/>
</radialGradient>
</defs>
</svg>
