<svg width="318" height="286" viewBox="0 0 318 286" fill="none" xmlns="http://www.w3.org/2000/svg">
<g opacity="0.35" clip-path="url(#clip0_24_301)">
<path opacity="0.95" d="M219.044 125.781L219.052 125.79L219.059 125.798C223.484 130.501 227.347 135.877 230.477 141.883C248.75 176.957 235.147 220.206 200.1 238.465C165.053 256.725 121.814 243.092 103.54 208.018C100.412 202.013 98.2347 195.759 96.9149 189.436L96.9126 189.425L96.91 189.414L76.2587 100.334L76.2571 100.327L76.2554 100.32C71.142 79.5834 80.5957 57.294 100.362 46.9955C120.129 36.697 143.813 41.7213 157.877 57.794L157.882 57.7993L157.887 57.8046L219.044 125.781Z" stroke="#221C35" stroke-width="2.06762"/>
<path opacity="0.85" d="M229.992 122.979L230 122.988L230.008 122.996C235.137 128.441 239.614 134.666 243.239 141.623C264.404 182.248 248.567 232.387 207.867 253.592C167.166 274.798 117 259.046 95.8339 218.422C92.2103 211.467 89.6914 204.221 88.1673 196.896L88.1649 196.885L88.1624 196.873L64.3469 93.8611L64.3453 93.854L64.3436 93.847C58.4282 69.7988 69.4362 43.9284 92.4152 31.9562C115.394 19.9839 142.904 25.7864 159.223 44.4142L159.228 44.4196L159.233 44.4249L229.992 122.979Z" stroke="#221C35" stroke-width="2.06762"/>
<path opacity="0.75" d="M240.704 120.228L240.712 120.237L240.72 120.245C246.534 126.414 251.609 133.466 255.716 141.348C279.698 187.378 261.703 244.217 215.522 268.278C169.341 292.339 112.447 274.516 88.4654 228.487C84.3596 220.606 81.507 212.396 79.783 204.094L79.7806 204.083L79.7781 204.072L52.8685 87.5008L52.8669 87.4938L52.8651 87.4868C46.1659 60.2147 58.677 30.8636 84.77 17.269C110.863 3.67436 142.087 10.2394 160.599 31.3569L160.603 31.3623L160.608 31.3676L240.704 120.228Z" stroke="#221C35" stroke-width="2.06762"/>
<path opacity="0.5" d="M251.413 117.478L251.421 117.486L251.428 117.494C257.928 124.386 263.6 132.266 268.189 141.074C294.987 192.509 274.835 256.048 223.173 282.964C171.511 309.88 107.891 289.987 81.093 238.552C76.5049 229.746 73.3188 220.571 71.3947 211.293L71.3924 211.282L71.3898 211.271L41.3862 81.141L41.3845 81.134L41.3828 81.1269C33.8995 50.6309 47.9141 17.7993 77.1209 2.58233C106.328 -12.6346 141.265 -5.30736 161.97 18.3001L161.975 18.3055L161.98 18.3108L251.413 117.478Z" stroke="#221C35" stroke-width="2.06762"/>
<path opacity="0.25" d="M262.121 114.727L262.129 114.735L262.137 114.744C269.322 122.358 275.591 131.066 280.662 140.799C310.276 197.64 287.966 267.878 230.824 297.65C173.682 327.421 103.335 305.458 73.7205 248.617C68.6503 238.885 65.1305 228.745 63.0065 218.492L63.0042 218.481L63.0016 218.469L29.9038 74.7809L29.9022 74.7739L29.9004 74.7668C21.6332 41.0466 37.1512 4.73464 69.4718 -12.1046C101.792 -28.9438 140.444 -20.8544 163.342 5.24303L163.347 5.24841L163.351 5.25372L262.121 114.727Z" stroke="#221C35" stroke-width="2.06762"/>
<g clip-path="url(#clip1_24_301)">
<path fill-rule="evenodd" clip-rule="evenodd" d="M157.301 70.7647L209.077 128.269C212.876 132.305 216.194 136.918 218.879 142.073C234.565 172.179 222.85 209.322 192.718 225.021C162.586 240.72 125.433 229.037 109.747 198.931C107.062 193.777 105.195 188.408 104.064 182.981L86.6171 107.592C82.2024 89.6603 90.3971 70.3761 107.516 61.4569C124.636 52.5377 145.136 56.8717 157.301 70.7647ZM108.62 83.4934C110.965 87.9939 116.526 89.7427 121.031 87.3959C125.535 85.0491 127.289 79.4892 124.944 74.9887C122.599 70.4882 117.038 68.7394 112.533 71.0862C108.029 73.4331 106.275 78.9929 108.62 83.4934ZM178.879 198.435C161.336 207.574 139.716 200.776 130.584 183.248L130.59 183.229C121.458 165.701 128.275 144.086 145.818 134.946C163.36 125.806 184.981 132.605 194.113 150.132L194.227 150.35C195.102 152.03 195.276 153.993 194.704 155.808C194.132 157.622 192.862 159.131 191.181 160.007L165.772 173.245C164.091 174.121 162.126 174.297 160.312 173.726C158.497 173.156 156.988 171.888 156.113 170.208C155.238 168.528 155.063 166.565 155.635 164.751C156.207 162.937 157.477 161.427 159.158 160.552L176.419 151.559C176.508 151.512 176.585 151.44 176.642 151.361C176.699 151.282 176.736 151.198 176.748 151.094C176.759 150.99 176.757 150.893 176.71 150.804C176.683 150.72 176.624 150.637 176.551 150.561C173.61 147.985 170.036 146.26 166.181 145.563C162.338 144.858 158.371 145.23 154.712 146.631C151.046 148.019 147.843 150.389 145.434 153.47C143.025 156.551 141.5 160.231 141.026 164.113C140.552 167.996 141.141 171.944 142.752 175.506C144.363 179.068 146.905 182.13 150.118 184.352C153.332 186.574 157.093 187.874 160.993 188.125C164.893 188.376 168.801 187.546 172.266 185.741C173.947 184.865 175.911 184.689 177.726 185.26C179.541 185.83 181.05 187.098 181.925 188.778C182.8 190.458 182.974 192.421 182.402 194.235C181.83 196.049 180.56 197.559 178.879 198.435Z" fill="#221C35"/>
</g>
</g>
<defs>
<clipPath id="clip0_24_301">
<rect width="318" height="286" fill="white"/>
</clipPath>
<clipPath id="clip1_24_301">
<rect width="123.056" height="184.425" fill="white" transform="translate(52.9531 89.8862) rotate(-27.5198)"/>
</clipPath>
</defs>
</svg>
