<svg width="32" height="32" viewBox="0 0 32 32" fill="none" xmlns="http://www.w3.org/2000/svg">
<path d="M2 16C2 23.732 8.26801 30 16 30C17.5464 30 18.8 28.7464 18.8 27.2C18.8 25.6536 17.5464 24.4 16 24.4C11.3608 24.4 7.6 20.6392 7.6 16C7.6 11.3608 11.3608 7.6 16 7.6C19.5696 7.6 22.6191 9.82652 23.8356 12.9665C23.8972 13.1256 23.7773 13.2933 23.6067 13.2933H16C14.4536 13.2933 13.2 14.5469 13.2 16.0933C13.2 17.6397 14.4536 18.8933 16 18.8933H27.2C28.7464 18.8933 30 17.6397 30 16.0933V16C30 8.26801 23.732 2 16 2C8.26801 2 2 8.26801 2 16Z" fill="#33C88C"/>
</svg>
