<svg width="122" height="19" viewBox="0 0 122 19" fill="none" xmlns="http://www.w3.org/2000/svg">
<path d="M8.04894 3.61846C8.3483 2.69715 9.6517 2.69715 9.95106 3.61846L10.7961 6.21927C10.93 6.63129 11.3139 6.91025 11.7472 6.91025L14.4818 6.91025C15.4505 6.91025 15.8533 8.14987 15.0696 8.71927L12.8572 10.3267C12.5067 10.5813 12.3601 11.0327 12.494 11.4447L13.339 14.0455C13.6384 14.9668 12.5839 15.7329 11.8002 15.1635L9.58779 13.5562C9.2373 13.3015 8.7627 13.3015 8.41221 13.5562L6.19983 15.1635C5.41612 15.7329 4.36164 14.9668 4.66099 14.0455L5.50604 11.4447C5.63992 11.0327 5.49326 10.5813 5.14277 10.3267L2.93039 8.71927C2.14668 8.14987 2.54945 6.91025 3.51818 6.91025L6.25283 6.91025C6.68606 6.91025 7.07001 6.63129 7.20389 6.21927L8.04894 3.61846Z" fill="#33C88C"/>
<path d="M34.0489 3.61846C34.3483 2.69715 35.6517 2.69715 35.9511 3.61846L36.7961 6.21927C36.93 6.63129 37.3139 6.91025 37.7472 6.91025L40.4818 6.91025C41.4505 6.91025 41.8533 8.14987 41.0696 8.71927L38.8572 10.3267C38.5067 10.5813 38.3601 11.0327 38.494 11.4447L39.339 14.0455C39.6384 14.9668 38.5839 15.7329 37.8002 15.1635L35.5878 13.5562C35.2373 13.3015 34.7627 13.3015 34.4122 13.5562L32.1998 15.1635C31.4161 15.7329 30.3616 14.9668 30.661 14.0455L31.506 11.4447C31.6399 11.0327 31.4933 10.5813 31.1428 10.3267L28.9304 8.71927C28.1467 8.14987 28.5495 6.91025 29.5182 6.91025L32.2528 6.91025C32.6861 6.91025 33.07 6.63129 33.2039 6.21927L34.0489 3.61846Z" fill="#33C88C"/>
<path d="M60.0489 3.61846C60.3483 2.69715 61.6517 2.69715 61.9511 3.61846L62.7961 6.21927C62.93 6.63129 63.3139 6.91025 63.7472 6.91025L66.4818 6.91025C67.4505 6.91025 67.8533 8.14987 67.0696 8.71927L64.8572 10.3267C64.5067 10.5813 64.3601 11.0327 64.494 11.4447L65.339 14.0455C65.6384 14.9668 64.5839 15.7329 63.8002 15.1635L61.5878 13.5562C61.2373 13.3015 60.7627 13.3015 60.4122 13.5562L58.1998 15.1635C57.4161 15.7329 56.3616 14.9668 56.661 14.0455L57.506 11.4447C57.6399 11.0327 57.4933 10.5813 57.1428 10.3267L54.9304 8.71927C54.1467 8.14987 54.5495 6.91025 55.5182 6.91025L58.2528 6.91025C58.6861 6.91025 59.07 6.63129 59.2039 6.21927L60.0489 3.61846Z" fill="#33C88C"/>
<path d="M86.0489 3.61846C86.3483 2.69715 87.6517 2.69715 87.9511 3.61846L88.7961 6.21927C88.93 6.63129 89.3139 6.91025 89.7472 6.91025L92.4818 6.91025C93.4505 6.91025 93.8533 8.14987 93.0696 8.71927L90.8572 10.3267C90.5067 10.5813 90.3601 11.0327 90.494 11.4447L91.339 14.0455C91.6384 14.9668 90.5839 15.7329 89.8002 15.1635L87.5878 13.5562C87.2373 13.3015 86.7627 13.3015 86.4122 13.5562L84.1998 15.1635C83.4161 15.7329 82.3616 14.9668 82.661 14.0455L83.506 11.4447C83.6399 11.0327 83.4933 10.5813 83.1428 10.3267L80.9304 8.71927C80.1467 8.14987 80.5495 6.91025 81.5182 6.91025L84.2528 6.91025C84.6861 6.91025 85.07 6.63129 85.2039 6.21927L86.0489 3.61846Z" fill="#33C88C"/>
<path d="M112.049 3.61846C112.348 2.69715 113.652 2.69715 113.951 3.61846L114.796 6.21927C114.93 6.63129 115.314 6.91025 115.747 6.91025L118.482 6.91025C119.451 6.91025 119.853 8.14987 119.07 8.71927L116.857 10.3267C116.507 10.5813 116.36 11.0327 116.494 11.4447L117.339 14.0455C117.638 14.9668 116.584 15.7329 115.8 15.1635L113.588 13.5562C113.237 13.3015 112.763 13.3015 112.412 13.5562L110.2 15.1635C109.416 15.7329 108.362 14.9668 108.661 14.0455L109.506 11.4447C109.64 11.0327 109.493 10.5813 109.143 10.3267L106.93 8.71927C106.147 8.14987 106.549 6.91025 107.518 6.91025L110.253 6.91025C110.686 6.91025 111.07 6.63129 111.204 6.21927L112.049 3.61846Z" fill="#33C88C"/>
</svg>
