<svg width="28" height="28" viewBox="0 0 28 28" fill="none" xmlns="http://www.w3.org/2000/svg">
<path d="M25.2 19.775C24.9667 21 23.975 21.9333 22.75 22.1083C20.825 22.4 17.6167 22.75 14 22.75C10.4417 22.75 7.23337 22.4 5.25004 22.1083C4.02504 21.9333 3.03337 21 2.80004 19.775C2.56671 18.4333 2.33337 16.45 2.33337 14C2.33337 11.55 2.56671 9.56667 2.80004 8.225C3.03337 7 4.02504 6.06667 5.25004 5.89167C7.17504 5.6 10.3834 5.25 14 5.25C17.6167 5.25 20.7667 5.6 22.75 5.89167C23.975 6.06667 24.9667 7 25.2 8.225C25.4334 9.56667 25.725 11.55 25.725 14C25.6667 16.45 25.4334 18.4333 25.2 19.775Z" fill="#FF3D00"/>
<path d="M11.6667 18.0827V9.91602L18.6667 13.9993L11.6667 18.0827Z" fill="white"/>
</svg>
